<?xml version="1.0" encoding="UTF-8"?><svg id="_레이어_2" xmlns="http://www.w3.org/2000/svg" xmlns:xlink="http://www.w3.org/1999/xlink" viewBox="0 0 1164.83 377.73"><defs><style>.cls-1{fill:url(#_무제_그라디언트_125-3);}.cls-1,.cls-2,.cls-3,.cls-4,.cls-5,.cls-6,.cls-7,.cls-8,.cls-9,.cls-10,.cls-11,.cls-12,.cls-13,.cls-14,.cls-15,.cls-16,.cls-17,.cls-18,.cls-19,.cls-20,.cls-21,.cls-22,.cls-23,.cls-24,.cls-25,.cls-26,.cls-27,.cls-28,.cls-29,.cls-30,.cls-31,.cls-32,.cls-33,.cls-34,.cls-35,.cls-36,.cls-37,.cls-38,.cls-39,.cls-40,.cls-41,.cls-42,.cls-43,.cls-44,.cls-45,.cls-46,.cls-47,.cls-48,.cls-49,.cls-50,.cls-51,.cls-52,.cls-53,.cls-54,.cls-55,.cls-56,.cls-57,.cls-58,.cls-59,.cls-60,.cls-61,.cls-62,.cls-63,.cls-64,.cls-65,.cls-66,.cls-67,.cls-68,.cls-69,.cls-70,.cls-71,.cls-72,.cls-73,.cls-74,.cls-75,.cls-76,.cls-77,.cls-78,.cls-79,.cls-80,.cls-81,.cls-82,.cls-83,.cls-84,.cls-85,.cls-86,.cls-87,.cls-88,.cls-89,.cls-90,.cls-91,.cls-92,.cls-93,.cls-94,.cls-95,.cls-96,.cls-97,.cls-98,.cls-99,.cls-100{stroke-width:0px;}.cls-2{fill:url(#_무제_그라디언트_125-5);}.cls-3{fill:url(#_무제_그라디언트_125-6);}.cls-4{fill:url(#_무제_그라디언트_125-4);}.cls-5{fill:url(#_무제_그라디언트_125-7);}.cls-6{fill:url(#_무제_그라디언트_125-8);}.cls-7{fill:url(#_무제_그라디언트_125-2);}.cls-8{fill:url(#_무제_그라디언트_125-9);}.cls-9{fill:url(#_무제_그라디언트_124-7);}.cls-10{fill:url(#_무제_그라디언트_124-9);}.cls-11{fill:url(#_무제_그라디언트_124-2);}.cls-12{fill:url(#_무제_그라디언트_124-8);}.cls-13{fill:url(#_무제_그라디언트_124-5);}.cls-14{fill:url(#_무제_그라디언트_124-3);}.cls-15{fill:url(#_무제_그라디언트_124-6);}.cls-16{fill:url(#_무제_그라디언트_124-4);}.cls-17{fill:url(#_무제_그라디언트_35-28);}.cls-18{fill:url(#_무제_그라디언트_35-27);}.cls-19{fill:url(#_무제_그라디언트_35-20);}.cls-20{fill:url(#_무제_그라디언트_35-29);}.cls-21{fill:url(#_무제_그라디언트_35-25);}.cls-22{fill:url(#_무제_그라디언트_35-26);}.cls-23{fill:url(#_무제_그라디언트_35-24);}.cls-24{fill:url(#_무제_그라디언트_35-23);}.cls-25{fill:url(#_무제_그라디언트_35-22);}.cls-26{fill:url(#_무제_그라디언트_35-21);}.cls-27{fill:url(#_무제_그라디언트_35-10);}.cls-28{fill:url(#_무제_그라디언트_35-15);}.cls-29{fill:url(#_무제_그라디언트_35-12);}.cls-30{fill:url(#_무제_그라디언트_35-17);}.cls-31{fill:url(#_무제_그라디언트_35-18);}.cls-32{fill:url(#_무제_그라디언트_35-16);}.cls-33{fill:url(#_무제_그라디언트_35-13);}.cls-34{fill:url(#_무제_그라디언트_35-14);}.cls-35{fill:url(#_무제_그라디언트_35-19);}.cls-36{fill:url(#_무제_그라디언트_35-11);}.cls-37{fill:url(#_무제_그라디언트_35-30);}.cls-38{fill:url(#_무제_그라디언트_35-31);}.cls-39{fill:url(#_무제_그라디언트_125);}.cls-40{fill:url(#_무제_그라디언트_124);}.cls-41{fill:url(#_무제_그라디언트_35);}.cls-42{fill:url(#_무제_그라디언트_35-2);}.cls-43{fill:url(#_무제_그라디언트_35-3);}.cls-44{fill:url(#_무제_그라디언트_35-8);}.cls-45{fill:url(#_무제_그라디언트_35-9);}.cls-46{fill:url(#_무제_그라디언트_35-4);}.cls-47{fill:url(#_무제_그라디언트_35-5);}.cls-48{fill:url(#_무제_그라디언트_35-7);}.cls-49{fill:url(#_무제_그라디언트_35-6);}.cls-50{fill:url(#_무제_그라디언트_124-29);}.cls-51{fill:url(#_무제_그라디언트_124-28);}.cls-52{fill:url(#_무제_그라디언트_124-27);}.cls-53{fill:url(#_무제_그라디언트_124-26);}.cls-54{fill:url(#_무제_그라디언트_124-23);}.cls-55{fill:url(#_무제_그라디언트_124-25);}.cls-56{fill:url(#_무제_그라디언트_124-24);}.cls-57{fill:url(#_무제_그라디언트_124-20);}.cls-58{fill:url(#_무제_그라디언트_124-22);}.cls-59{fill:url(#_무제_그라디언트_124-21);}.cls-60{fill:url(#_무제_그라디언트_124-14);}.cls-61{fill:url(#_무제_그라디언트_124-13);}.cls-62{fill:url(#_무제_그라디언트_124-16);}.cls-63{fill:url(#_무제_그라디언트_124-15);}.cls-64{fill:url(#_무제_그라디언트_124-11);}.cls-65{fill:url(#_무제_그라디언트_124-18);}.cls-66{fill:url(#_무제_그라디언트_124-17);}.cls-67{fill:url(#_무제_그라디언트_124-12);}.cls-68{fill:url(#_무제_그라디언트_124-31);}.cls-69{fill:url(#_무제_그라디언트_124-19);}.cls-70{fill:url(#_무제_그라디언트_124-10);}.cls-71{fill:url(#_무제_그라디언트_124-30);}.cls-72{fill:url(#_무제_그라디언트_125-30);}.cls-73{fill:url(#_무제_그라디언트_125-31);}.cls-74{fill:url(#_무제_그라디언트_125-15);}.cls-75{fill:url(#_무제_그라디언트_125-14);}.cls-76{fill:url(#_무제_그라디언트_125-13);}.cls-77{fill:url(#_무제_그라디언트_125-18);}.cls-78{fill:url(#_무제_그라디언트_125-19);}.cls-79{fill:url(#_무제_그라디언트_125-24);}.cls-80{fill:url(#_무제_그라디언트_125-25);}.cls-81{fill:url(#_무제_그라디언트_125-29);}.cls-82{fill:url(#_무제_그라디언트_125-20);}.cls-83{fill:url(#_무제_그라디언트_125-28);}.cls-84{fill:url(#_무제_그라디언트_125-21);}.cls-85{fill:url(#_무제_그라디언트_125-22);}.cls-86{fill:url(#_무제_그라디언트_125-23);}.cls-87{fill:url(#_무제_그라디언트_125-26);}.cls-88{fill:url(#_무제_그라디언트_125-27);}.cls-89{fill:url(#_무제_그라디언트_125-12);}.cls-90{fill:url(#_무제_그라디언트_125-16);}.cls-91{fill:url(#_무제_그라디언트_125-17);}.cls-92{fill:url(#_무제_그라디언트_125-11);}.cls-93{fill:url(#_무제_그라디언트_125-10);}.cls-94{fill:#71a6f9;}.cls-95{fill:#3e86f7;}.cls-96{fill:#0f69f5;}.cls-97{fill:#c2d9ff;}.cls-98{fill:#333;}.cls-99{fill:#fff;}.cls-100{fill:#fafafa;}</style><linearGradient id="_무제_그라디언트_35" x1="238.75" y1="229.43" x2="487.78" y2="229.43" gradientUnits="userSpaceOnUse"><stop offset=".45" stop-color="#0f69f5"/><stop offset=".55" stop-color="#0853c9"/></linearGradient><linearGradient id="_무제_그라디언트_35-2" y1="228.55" y2="228.55" xlink:href="#_무제_그라디언트_35"/><linearGradient id="_무제_그라디언트_35-3" y1="227.68" y2="227.68" xlink:href="#_무제_그라디언트_35"/><linearGradient id="_무제_그라디언트_35-4" y1="226.8" y2="226.8" xlink:href="#_무제_그라디언트_35"/><linearGradient id="_무제_그라디언트_35-5" y1="225.92" y2="225.92" xlink:href="#_무제_그라디언트_35"/><linearGradient id="_무제_그라디언트_35-6" y1="225.04" y2="225.04" xlink:href="#_무제_그라디언트_35"/><linearGradient id="_무제_그라디언트_35-7" y1="224.16" y2="224.16" xlink:href="#_무제_그라디언트_35"/><linearGradient id="_무제_그라디언트_35-8" y1="223.28" y2="223.28" xlink:href="#_무제_그라디언트_35"/><linearGradient id="_무제_그라디언트_35-9" y1="222.4" y2="222.4" xlink:href="#_무제_그라디언트_35"/><linearGradient id="_무제_그라디언트_35-10" y1="221.52" y2="221.52" xlink:href="#_무제_그라디언트_35"/><linearGradient id="_무제_그라디언트_35-11" y1="220.65" y2="220.65" xlink:href="#_무제_그라디언트_35"/><linearGradient id="_무제_그라디언트_35-12" y1="219.77" y2="219.77" xlink:href="#_무제_그라디언트_35"/><linearGradient id="_무제_그라디언트_35-13" y1="218.89" y2="218.89" xlink:href="#_무제_그라디언트_35"/><linearGradient id="_무제_그라디언트_35-14" y1="218.01" y2="218.01" xlink:href="#_무제_그라디언트_35"/><linearGradient id="_무제_그라디언트_35-15" y1="217.13" y2="217.13" xlink:href="#_무제_그라디언트_35"/><linearGradient id="_무제_그라디언트_35-16" y1="216.25" y2="216.25" xlink:href="#_무제_그라디언트_35"/><linearGradient id="_무제_그라디언트_35-17" y1="215.37" y2="215.37" xlink:href="#_무제_그라디언트_35"/><linearGradient id="_무제_그라디언트_35-18" y1="214.49" y2="214.49" xlink:href="#_무제_그라디언트_35"/><linearGradient id="_무제_그라디언트_35-19" y1="213.62" y2="213.62" xlink:href="#_무제_그라디언트_35"/><linearGradient id="_무제_그라디언트_35-20" y1="212.74" y2="212.74" xlink:href="#_무제_그라디언트_35"/><linearGradient id="_무제_그라디언트_35-21" y1="211.86" y2="211.86" xlink:href="#_무제_그라디언트_35"/><linearGradient id="_무제_그라디언트_35-22" y1="210.98" y2="210.98" xlink:href="#_무제_그라디언트_35"/><linearGradient id="_무제_그라디언트_35-23" y1="210.1" y2="210.1" xlink:href="#_무제_그라디언트_35"/><linearGradient id="_무제_그라디언트_35-24" y1="209.22" y2="209.22" xlink:href="#_무제_그라디언트_35"/><linearGradient id="_무제_그라디언트_35-25" y1="208.34" y2="208.34" xlink:href="#_무제_그라디언트_35"/><linearGradient id="_무제_그라디언트_35-26" y1="207.46" y2="207.46" xlink:href="#_무제_그라디언트_35"/><linearGradient id="_무제_그라디언트_35-27" y1="206.59" y2="206.59" xlink:href="#_무제_그라디언트_35"/><linearGradient id="_무제_그라디언트_35-28" y1="205.71" y2="205.71" xlink:href="#_무제_그라디언트_35"/><linearGradient id="_무제_그라디언트_35-29" y1="204.83" y2="204.83" xlink:href="#_무제_그라디언트_35"/><linearGradient id="_무제_그라디언트_35-30" y1="203.95" y2="203.95" xlink:href="#_무제_그라디언트_35"/><linearGradient id="_무제_그라디언트_35-31" y1="203.07" y2="203.07" xlink:href="#_무제_그라디언트_35"/><linearGradient id="_무제_그라디언트_125" x1="238.75" y1="202.92" x2="487.78" y2="202.92" gradientUnits="userSpaceOnUse"><stop offset=".45" stop-color="#71a6f9"/><stop offset=".55" stop-color="#3e86f7"/></linearGradient><linearGradient id="_무제_그라디언트_125-2" y1="202.05" y2="202.05" xlink:href="#_무제_그라디언트_125"/><linearGradient id="_무제_그라디언트_125-3" y1="201.17" y2="201.17" xlink:href="#_무제_그라디언트_125"/><linearGradient id="_무제_그라디언트_125-4" y1="200.29" y2="200.29" xlink:href="#_무제_그라디언트_125"/><linearGradient id="_무제_그라디언트_125-5" y1="199.41" y2="199.41" xlink:href="#_무제_그라디언트_125"/><linearGradient id="_무제_그라디언트_125-6" y1="198.53" y2="198.53" xlink:href="#_무제_그라디언트_125"/><linearGradient id="_무제_그라디언트_125-7" y1="197.65" y2="197.65" xlink:href="#_무제_그라디언트_125"/><linearGradient id="_무제_그라디언트_125-8" y1="196.77" y2="196.77" xlink:href="#_무제_그라디언트_125"/><linearGradient id="_무제_그라디언트_125-9" y1="195.89" y2="195.89" xlink:href="#_무제_그라디언트_125"/><linearGradient id="_무제_그라디언트_125-10" y1="195.02" y2="195.02" xlink:href="#_무제_그라디언트_125"/><linearGradient id="_무제_그라디언트_125-11" y1="194.14" y2="194.14" xlink:href="#_무제_그라디언트_125"/><linearGradient id="_무제_그라디언트_125-12" y1="193.26" y2="193.26" xlink:href="#_무제_그라디언트_125"/><linearGradient id="_무제_그라디언트_125-13" y1="192.38" y2="192.38" xlink:href="#_무제_그라디언트_125"/><linearGradient id="_무제_그라디언트_125-14" y1="191.5" y2="191.5" xlink:href="#_무제_그라디언트_125"/><linearGradient id="_무제_그라디언트_125-15" y1="190.62" y2="190.62" xlink:href="#_무제_그라디언트_125"/><linearGradient id="_무제_그라디언트_125-16" y1="189.74" y2="189.74" xlink:href="#_무제_그라디언트_125"/><linearGradient id="_무제_그라디언트_125-17" y1="188.86" y2="188.86" xlink:href="#_무제_그라디언트_125"/><linearGradient id="_무제_그라디언트_125-18" y1="187.99" y2="187.99" xlink:href="#_무제_그라디언트_125"/><linearGradient id="_무제_그라디언트_125-19" y1="187.11" y2="187.11" xlink:href="#_무제_그라디언트_125"/><linearGradient id="_무제_그라디언트_125-20" y1="186.23" y2="186.23" xlink:href="#_무제_그라디언트_125"/><linearGradient id="_무제_그라디언트_125-21" y1="185.35" y2="185.35" xlink:href="#_무제_그라디언트_125"/><linearGradient id="_무제_그라디언트_125-22" y1="184.47" y2="184.47" xlink:href="#_무제_그라디언트_125"/><linearGradient id="_무제_그라디언트_125-23" y1="183.59" y2="183.59" xlink:href="#_무제_그라디언트_125"/><linearGradient id="_무제_그라디언트_125-24" y1="182.71" y2="182.71" xlink:href="#_무제_그라디언트_125"/><linearGradient id="_무제_그라디언트_125-25" y1="181.83" y2="181.83" xlink:href="#_무제_그라디언트_125"/><linearGradient id="_무제_그라디언트_125-26" y1="180.96" y2="180.96" xlink:href="#_무제_그라디언트_125"/><linearGradient id="_무제_그라디언트_125-27" y1="180.08" y2="180.08" xlink:href="#_무제_그라디언트_125"/><linearGradient id="_무제_그라디언트_125-28" y1="179.2" y2="179.2" xlink:href="#_무제_그라디언트_125"/><linearGradient id="_무제_그라디언트_125-29" y1="178.32" y2="178.32" xlink:href="#_무제_그라디언트_125"/><linearGradient id="_무제_그라디언트_125-30" y1="177.44" y2="177.44" xlink:href="#_무제_그라디언트_125"/><linearGradient id="_무제_그라디언트_125-31" y1="176.56" y2="176.56" xlink:href="#_무제_그라디언트_125"/><linearGradient id="_무제_그라디언트_124" x1="238.75" y1="176.42" x2="487.78" y2="176.42" gradientUnits="userSpaceOnUse"><stop offset=".45" stop-color="#c2d9ff"/><stop offset=".55" stop-color="#a2c5fb"/></linearGradient><linearGradient id="_무제_그라디언트_124-2" y1="175.54" y2="175.54" xlink:href="#_무제_그라디언트_124"/><linearGradient id="_무제_그라디언트_124-3" y1="174.66" y2="174.66" xlink:href="#_무제_그라디언트_124"/><linearGradient id="_무제_그라디언트_124-4" y1="173.78" y2="173.78" xlink:href="#_무제_그라디언트_124"/><linearGradient id="_무제_그라디언트_124-5" y1="172.9" y2="172.9" xlink:href="#_무제_그라디언트_124"/><linearGradient id="_무제_그라디언트_124-6" y1="172.02" y2="172.02" xlink:href="#_무제_그라디언트_124"/><linearGradient id="_무제_그라디언트_124-7" y1="171.14" y2="171.14" xlink:href="#_무제_그라디언트_124"/><linearGradient id="_무제_그라디언트_124-8" y1="170.27" y2="170.27" xlink:href="#_무제_그라디언트_124"/><linearGradient id="_무제_그라디언트_124-9" y1="169.39" y2="169.39" xlink:href="#_무제_그라디언트_124"/><linearGradient id="_무제_그라디언트_124-10" y1="168.51" y2="168.51" xlink:href="#_무제_그라디언트_124"/><linearGradient id="_무제_그라디언트_124-11" y1="167.63" y2="167.63" xlink:href="#_무제_그라디언트_124"/><linearGradient id="_무제_그라디언트_124-12" y1="166.75" y2="166.75" xlink:href="#_무제_그라디언트_124"/><linearGradient id="_무제_그라디언트_124-13" y1="165.87" y2="165.87" xlink:href="#_무제_그라디언트_124"/><linearGradient id="_무제_그라디언트_124-14" y1="164.99" y2="164.99" xlink:href="#_무제_그라디언트_124"/><linearGradient id="_무제_그라디언트_124-15" y1="164.11" y2="164.11" xlink:href="#_무제_그라디언트_124"/><linearGradient id="_무제_그라디언트_124-16" y1="163.24" y2="163.24" xlink:href="#_무제_그라디언트_124"/><linearGradient id="_무제_그라디언트_124-17" y1="162.36" y2="162.36" xlink:href="#_무제_그라디언트_124"/><linearGradient id="_무제_그라디언트_124-18" y1="161.48" y2="161.48" xlink:href="#_무제_그라디언트_124"/><linearGradient id="_무제_그라디언트_124-19" y1="160.6" y2="160.6" xlink:href="#_무제_그라디언트_124"/><linearGradient id="_무제_그라디언트_124-20" y1="159.72" y2="159.72" xlink:href="#_무제_그라디언트_124"/><linearGradient id="_무제_그라디언트_124-21" y1="158.84" y2="158.84" xlink:href="#_무제_그라디언트_124"/><linearGradient id="_무제_그라디언트_124-22" y1="157.96" y2="157.96" xlink:href="#_무제_그라디언트_124"/><linearGradient id="_무제_그라디언트_124-23" y1="157.08" y2="157.08" xlink:href="#_무제_그라디언트_124"/><linearGradient id="_무제_그라디언트_124-24" y1="156.21" y2="156.21" xlink:href="#_무제_그라디언트_124"/><linearGradient id="_무제_그라디언트_124-25" y1="155.33" y2="155.33" xlink:href="#_무제_그라디언트_124"/><linearGradient id="_무제_그라디언트_124-26" y1="154.45" y2="154.45" xlink:href="#_무제_그라디언트_124"/><linearGradient id="_무제_그라디언트_124-27" y1="153.57" y2="153.57" xlink:href="#_무제_그라디언트_124"/><linearGradient id="_무제_그라디언트_124-28" y1="152.69" y2="152.69" xlink:href="#_무제_그라디언트_124"/><linearGradient id="_무제_그라디언트_124-29" y1="151.81" y2="151.81" xlink:href="#_무제_그라디언트_124"/><linearGradient id="_무제_그라디언트_124-30" y1="150.93" y2="150.93" xlink:href="#_무제_그라디언트_124"/><linearGradient id="_무제_그라디언트_124-31" y1="150.05" y2="150.05" xlink:href="#_무제_그라디언트_124"/></defs><g id="_레이어_1-2"><rect class="cls-100" width="1164.83" height="377.73"/><path class="cls-41" d="M364.68,131.55c10.12-.23,20,2.93,28.61,9.53,20.89,16.03,41.7,32.18,62.45,48.4,7.38,5.77,14.77,11.58,21.63,17.94,15.01,13.92,12.58,31.46.45,43.36-6.86,6.73-14.61,12.6-22.18,18.57-19.43,15.33-38.91,30.58-58.5,45.7-15,11.58-31.74,15.45-50.02,9.53-5.16-1.67-10.3-4.31-14.61-7.6-26.18-20.07-52.16-40.42-78.11-60.79-6.03-4.73-11.06-10.43-13.73-17.82-3.55-9.83-2.35-19.16,4.95-26.64,7.04-7.22,14.76-13.84,22.63-20.15,19.53-15.65,39.3-30.99,59.01-46.41,12.6-9.86,22.78-13.6,37.41-13.62Z"/><path class="cls-42" d="M364.68,130.67c10.12-.23,20,2.93,28.61,9.53,20.89,16.03,41.7,32.18,62.45,48.4,7.38,5.77,14.77,11.58,21.63,17.94,15.01,13.92,12.58,31.46.45,43.36-6.86,6.73-14.61,12.6-22.18,18.57-19.43,15.33-38.91,30.58-58.5,45.7-15,11.58-31.74,15.45-50.02,9.53-5.16-1.67-10.3-4.31-14.61-7.6-26.18-20.07-52.16-40.42-78.11-60.79-6.03-4.73-11.06-10.43-13.73-17.82-3.55-9.83-2.35-19.16,4.95-26.64,7.04-7.22,14.76-13.84,22.63-20.15,19.53-15.65,39.3-30.99,59.01-46.41,12.6-9.86,22.78-13.6,37.41-13.62Z"/><path class="cls-43" d="M364.68,129.79c10.12-.23,20,2.93,28.61,9.53,20.89,16.03,41.7,32.18,62.45,48.4,7.38,5.77,14.77,11.58,21.63,17.94,15.01,13.92,12.58,31.46.45,43.36-6.86,6.73-14.61,12.6-22.18,18.57-19.43,15.33-38.91,30.58-58.5,45.7-15,11.58-31.74,15.45-50.02,9.53-5.16-1.67-10.3-4.31-14.61-7.6-26.18-20.07-52.16-40.42-78.11-60.79-6.03-4.73-11.06-10.43-13.73-17.82-3.55-9.83-2.35-19.16,4.95-26.64,7.04-7.22,14.76-13.84,22.63-20.15,19.53-15.65,39.3-30.99,59.01-46.41,12.6-9.86,22.78-13.6,37.41-13.62Z"/><path class="cls-46" d="M364.68,128.91c10.12-.23,20,2.93,28.61,9.53,20.89,16.03,41.7,32.18,62.45,48.4,7.38,5.77,14.77,11.58,21.63,17.94,15.01,13.92,12.58,31.46.45,43.36-6.86,6.73-14.61,12.6-22.18,18.57-19.43,15.33-38.91,30.58-58.5,45.7-15,11.58-31.74,15.45-50.02,9.53-5.16-1.67-10.3-4.31-14.61-7.6-26.18-20.07-52.16-40.42-78.11-60.79-6.03-4.73-11.06-10.43-13.73-17.82-3.55-9.83-2.35-19.16,4.95-26.64,7.04-7.22,14.76-13.84,22.63-20.15,19.53-15.65,39.3-30.99,59.01-46.41,12.6-9.86,22.78-13.6,37.41-13.62Z"/><path class="cls-47" d="M364.68,128.03c10.12-.23,20,2.93,28.61,9.53,20.89,16.03,41.7,32.18,62.45,48.4,7.38,5.77,14.77,11.58,21.63,17.94,15.01,13.92,12.58,31.46.45,43.36-6.86,6.73-14.61,12.6-22.18,18.57-19.43,15.33-38.91,30.58-58.5,45.7-15,11.58-31.74,15.45-50.02,9.53-5.16-1.67-10.3-4.31-14.61-7.6-26.18-20.07-52.16-40.42-78.11-60.79-6.03-4.73-11.06-10.43-13.73-17.82-3.55-9.83-2.35-19.16,4.95-26.64,7.04-7.22,14.76-13.84,22.63-20.15,19.53-15.65,39.3-30.99,59.01-46.41,12.6-9.86,22.78-13.6,37.41-13.62Z"/><path class="cls-49" d="M364.68,127.15c10.12-.23,20,2.93,28.61,9.53,20.89,16.03,41.7,32.18,62.45,48.4,7.38,5.77,14.77,11.58,21.63,17.94,15.01,13.92,12.58,31.46.45,43.36-6.86,6.73-14.61,12.6-22.18,18.57-19.43,15.33-38.91,30.58-58.5,45.7-15,11.58-31.74,15.45-50.02,9.53-5.16-1.67-10.3-4.31-14.61-7.6-26.18-20.07-52.16-40.42-78.11-60.79-6.03-4.73-11.06-10.43-13.73-17.82-3.55-9.83-2.35-19.16,4.95-26.64,7.04-7.22,14.76-13.84,22.63-20.15,19.53-15.65,39.3-30.99,59.01-46.41,12.6-9.86,22.78-13.6,37.41-13.62Z"/><path class="cls-48" d="M364.68,126.27c10.12-.23,20,2.93,28.61,9.53,20.89,16.03,41.7,32.18,62.45,48.4,7.38,5.77,14.77,11.58,21.63,17.94,15.01,13.92,12.58,31.46.45,43.36-6.86,6.73-14.61,12.6-22.18,18.57-19.43,15.33-38.91,30.58-58.5,45.7-15,11.58-31.74,15.45-50.02,9.53-5.16-1.67-10.3-4.31-14.61-7.6-26.18-20.07-52.16-40.42-78.11-60.79-6.03-4.73-11.06-10.43-13.73-17.82-3.55-9.83-2.35-19.16,4.95-26.64,7.04-7.22,14.76-13.84,22.63-20.15,19.53-15.65,39.3-30.99,59.01-46.41,12.6-9.86,22.78-13.6,37.41-13.62Z"/><path class="cls-44" d="M364.68,125.4c10.12-.23,20,2.93,28.61,9.53,20.89,16.03,41.7,32.18,62.45,48.4,7.38,5.77,14.77,11.58,21.63,17.94,15.01,13.92,12.58,31.46.45,43.36-6.86,6.73-14.61,12.6-22.18,18.57-19.43,15.33-38.91,30.58-58.5,45.7-15,11.58-31.74,15.45-50.02,9.53-5.16-1.67-10.3-4.31-14.61-7.6-26.18-20.07-52.16-40.42-78.11-60.79-6.03-4.73-11.06-10.43-13.73-17.82-3.55-9.83-2.35-19.16,4.95-26.64,7.04-7.22,14.76-13.84,22.63-20.15,19.53-15.65,39.3-30.99,59.01-46.41,12.6-9.86,22.78-13.6,37.41-13.62Z"/><path class="cls-45" d="M364.68,124.52c10.12-.23,20,2.93,28.61,9.53,20.89,16.03,41.7,32.18,62.45,48.4,7.38,5.77,14.77,11.58,21.63,17.94,15.01,13.92,12.58,31.46.45,43.36-6.86,6.73-14.61,12.6-22.18,18.57-19.43,15.33-38.91,30.58-58.5,45.7-15,11.58-31.74,15.45-50.02,9.53-5.16-1.67-10.3-4.31-14.61-7.6-26.18-20.07-52.16-40.42-78.11-60.79-6.03-4.73-11.06-10.43-13.73-17.82-3.55-9.83-2.35-19.16,4.95-26.64,7.04-7.22,14.76-13.84,22.63-20.15,19.53-15.65,39.3-30.99,59.01-46.41,12.6-9.86,22.78-13.6,37.41-13.62Z"/><path class="cls-27" d="M364.68,123.64c10.12-.23,20,2.93,28.61,9.53,20.89,16.03,41.7,32.18,62.45,48.4,7.38,5.77,14.77,11.58,21.63,17.94,15.01,13.92,12.58,31.46.45,43.36-6.86,6.73-14.61,12.6-22.18,18.57-19.43,15.33-38.91,30.58-58.5,45.7-15,11.58-31.74,15.45-50.02,9.53-5.16-1.67-10.3-4.31-14.61-7.6-26.18-20.07-52.16-40.42-78.11-60.79-6.03-4.73-11.06-10.43-13.73-17.82-3.55-9.83-2.35-19.16,4.95-26.64,7.04-7.22,14.76-13.84,22.63-20.15,19.53-15.65,39.3-30.99,59.01-46.41,12.6-9.86,22.78-13.6,37.41-13.62Z"/><path class="cls-36" d="M364.68,122.76c10.12-.23,20,2.93,28.61,9.53,20.89,16.03,41.7,32.18,62.45,48.4,7.38,5.77,14.77,11.58,21.63,17.94,15.01,13.92,12.58,31.46.45,43.36-6.86,6.73-14.61,12.6-22.18,18.57-19.43,15.33-38.91,30.58-58.5,45.7-15,11.58-31.74,15.45-50.02,9.53-5.16-1.67-10.3-4.31-14.61-7.6-26.18-20.07-52.16-40.42-78.11-60.79-6.03-4.73-11.06-10.43-13.73-17.82-3.55-9.83-2.35-19.16,4.95-26.64,7.04-7.22,14.76-13.84,22.63-20.15,19.53-15.65,39.3-30.99,59.01-46.41,12.6-9.86,22.78-13.6,37.41-13.62Z"/><path class="cls-29" d="M364.68,121.88c10.12-.23,20,2.93,28.61,9.53,20.89,16.03,41.7,32.18,62.45,48.4,7.38,5.77,14.77,11.58,21.63,17.94,15.01,13.92,12.58,31.46.45,43.36-6.86,6.73-14.61,12.6-22.18,18.57-19.43,15.33-38.91,30.58-58.5,45.7-15,11.58-31.74,15.45-50.02,9.53-5.16-1.67-10.3-4.31-14.61-7.6-26.18-20.07-52.16-40.42-78.11-60.79-6.03-4.73-11.06-10.43-13.73-17.82-3.55-9.83-2.35-19.16,4.95-26.64,7.04-7.22,14.76-13.84,22.63-20.15,19.53-15.65,39.3-30.99,59.01-46.41,12.6-9.86,22.78-13.6,37.41-13.62Z"/><path class="cls-33" d="M364.68,121c10.12-.23,20,2.93,28.61,9.53,20.89,16.03,41.7,32.18,62.45,48.4,7.38,5.77,14.77,11.58,21.63,17.94,15.01,13.92,12.58,31.46.45,43.36-6.86,6.73-14.61,12.6-22.18,18.57-19.43,15.33-38.91,30.58-58.5,45.7-15,11.58-31.74,15.45-50.02,9.53-5.16-1.67-10.3-4.31-14.61-7.6-26.18-20.07-52.16-40.42-78.11-60.79-6.03-4.73-11.06-10.43-13.73-17.82-3.55-9.83-2.35-19.16,4.95-26.64,7.04-7.22,14.76-13.84,22.63-20.15,19.53-15.65,39.3-30.99,59.01-46.41,12.6-9.86,22.78-13.6,37.41-13.62Z"/><path class="cls-34" d="M364.68,120.12c10.12-.23,20,2.93,28.61,9.53,20.89,16.03,41.7,32.18,62.45,48.4,7.38,5.77,14.77,11.58,21.63,17.94,15.01,13.92,12.58,31.46.45,43.36-6.86,6.73-14.61,12.6-22.18,18.57-19.43,15.33-38.91,30.58-58.5,45.7-15,11.58-31.74,15.45-50.02,9.53-5.16-1.67-10.3-4.31-14.61-7.6-26.18-20.07-52.16-40.42-78.11-60.79-6.03-4.73-11.06-10.43-13.73-17.82-3.55-9.83-2.35-19.16,4.95-26.64,7.04-7.22,14.76-13.84,22.63-20.15,19.53-15.65,39.3-30.99,59.01-46.41,12.6-9.86,22.78-13.6,37.41-13.62Z"/><path class="cls-28" d="M364.68,119.24c10.12-.23,20,2.93,28.61,9.53,20.89,16.03,41.7,32.18,62.45,48.4,7.38,5.77,14.77,11.58,21.63,17.94,15.01,13.92,12.58,31.46.45,43.36-6.86,6.73-14.61,12.6-22.18,18.57-19.43,15.33-38.91,30.58-58.5,45.7-15,11.58-31.74,15.45-50.02,9.53-5.16-1.67-10.3-4.31-14.61-7.6-26.18-20.07-52.16-40.42-78.11-60.79-6.03-4.73-11.06-10.43-13.73-17.82-3.55-9.83-2.35-19.16,4.95-26.64,7.04-7.22,14.76-13.84,22.63-20.15,19.53-15.65,39.3-30.99,59.01-46.41,12.6-9.86,22.78-13.6,37.41-13.62Z"/><path class="cls-32" d="M364.68,118.37c10.12-.23,20,2.93,28.61,9.53,20.89,16.03,41.7,32.18,62.45,48.4,7.38,5.77,14.77,11.58,21.63,17.94,15.01,13.92,12.58,31.46.45,43.36-6.86,6.73-14.61,12.6-22.18,18.57-19.43,15.33-38.91,30.58-58.5,45.7-15,11.58-31.74,15.45-50.02,9.53-5.16-1.67-10.3-4.31-14.61-7.6-26.18-20.07-52.16-40.42-78.11-60.79-6.03-4.73-11.06-10.43-13.73-17.82-3.55-9.83-2.35-19.16,4.95-26.64,7.04-7.22,14.76-13.84,22.63-20.15,19.53-15.65,39.3-30.99,59.01-46.41,12.6-9.86,22.78-13.6,37.41-13.62Z"/><path class="cls-30" d="M364.68,117.49c10.12-.23,20,2.93,28.61,9.53,20.89,16.03,41.7,32.18,62.45,48.4,7.38,5.77,14.77,11.58,21.63,17.94,15.01,13.92,12.58,31.46.45,43.36-6.86,6.73-14.61,12.6-22.18,18.57-19.43,15.33-38.91,30.58-58.5,45.7-15,11.58-31.74,15.45-50.02,9.53-5.16-1.67-10.3-4.31-14.61-7.6-26.18-20.07-52.16-40.42-78.11-60.79-6.03-4.73-11.06-10.43-13.73-17.82-3.55-9.83-2.35-19.16,4.95-26.64,7.04-7.22,14.76-13.84,22.63-20.15,19.53-15.65,39.3-30.99,59.01-46.41,12.6-9.86,22.78-13.6,37.41-13.62Z"/><path class="cls-31" d="M364.68,116.61c10.12-.23,20,2.93,28.61,9.53,20.89,16.03,41.7,32.18,62.45,48.4,7.38,5.77,14.77,11.58,21.63,17.94,15.01,13.92,12.58,31.46.45,43.36-6.86,6.73-14.61,12.6-22.18,18.57-19.43,15.33-38.91,30.58-58.5,45.7-15,11.58-31.74,15.45-50.02,9.53-5.16-1.67-10.3-4.31-14.61-7.6-26.18-20.07-52.16-40.42-78.11-60.79-6.03-4.73-11.06-10.43-13.73-17.82-3.55-9.83-2.35-19.16,4.95-26.64,7.04-7.22,14.76-13.84,22.63-20.15,19.53-15.65,39.3-30.99,59.01-46.41,12.6-9.86,22.78-13.6,37.41-13.62Z"/><path class="cls-35" d="M364.68,115.73c10.12-.23,20,2.93,28.61,9.53,20.89,16.03,41.7,32.18,62.45,48.4,7.38,5.77,14.77,11.58,21.63,17.94,15.01,13.92,12.58,31.46.45,43.36-6.86,6.73-14.61,12.6-22.18,18.57-19.43,15.33-38.91,30.58-58.5,45.7-15,11.58-31.74,15.45-50.02,9.53-5.16-1.67-10.3-4.31-14.61-7.6-26.18-20.07-52.16-40.42-78.11-60.79-6.03-4.73-11.06-10.43-13.73-17.82-3.55-9.83-2.35-19.16,4.95-26.64,7.04-7.22,14.76-13.84,22.63-20.15,19.53-15.65,39.3-30.99,59.01-46.41,12.6-9.86,22.78-13.6,37.41-13.62Z"/><path class="cls-19" d="M364.68,114.85c10.12-.23,20,2.93,28.61,9.53,20.89,16.03,41.7,32.18,62.45,48.4,7.38,5.77,14.77,11.58,21.63,17.94,15.01,13.92,12.58,31.46.45,43.36-6.86,6.73-14.61,12.6-22.18,18.57-19.43,15.33-38.91,30.58-58.5,45.7-15,11.58-31.74,15.45-50.02,9.53-5.16-1.67-10.3-4.31-14.61-7.6-26.18-20.07-52.16-40.42-78.11-60.79-6.03-4.73-11.06-10.43-13.73-17.82-3.55-9.83-2.35-19.16,4.95-26.64,7.04-7.22,14.76-13.84,22.63-20.15,19.53-15.65,39.3-30.99,59.01-46.41,12.6-9.86,22.78-13.6,37.41-13.62Z"/><path class="cls-26" d="M364.68,113.97c10.12-.23,20,2.93,28.61,9.53,20.89,16.03,41.7,32.18,62.45,48.4,7.38,5.77,14.77,11.58,21.63,17.94,15.01,13.92,12.58,31.46.45,43.36-6.86,6.73-14.61,12.6-22.18,18.57-19.43,15.33-38.91,30.58-58.5,45.7-15,11.58-31.74,15.45-50.02,9.53-5.16-1.67-10.3-4.31-14.61-7.6-26.18-20.07-52.16-40.42-78.11-60.79-6.03-4.73-11.06-10.43-13.73-17.82-3.55-9.83-2.35-19.16,4.95-26.64,7.04-7.22,14.76-13.84,22.63-20.15,19.53-15.65,39.3-30.99,59.01-46.41,12.6-9.86,22.78-13.6,37.41-13.62Z"/><path class="cls-25" d="M364.68,113.09c10.12-.23,20,2.93,28.61,9.53,20.89,16.03,41.7,32.18,62.45,48.4,7.38,5.77,14.77,11.58,21.63,17.94,15.01,13.92,12.58,31.46.45,43.36-6.86,6.73-14.61,12.6-22.18,18.57-19.43,15.33-38.91,30.58-58.5,45.7-15,11.58-31.74,15.45-50.02,9.53-5.16-1.67-10.3-4.31-14.61-7.6-26.18-20.07-52.16-40.42-78.11-60.79-6.03-4.73-11.06-10.43-13.73-17.82-3.55-9.83-2.35-19.16,4.95-26.64,7.04-7.22,14.76-13.84,22.63-20.15,19.53-15.65,39.3-30.99,59.01-46.41,12.6-9.86,22.78-13.6,37.41-13.62Z"/><path class="cls-24" d="M364.68,112.21c10.12-.23,20,2.93,28.61,9.53,20.89,16.03,41.7,32.18,62.45,48.4,7.38,5.77,14.77,11.58,21.63,17.94,15.01,13.92,12.58,31.46.45,43.36-6.86,6.73-14.61,12.6-22.18,18.57-19.43,15.33-38.91,30.58-58.5,45.7-15,11.58-31.74,15.45-50.02,9.53-5.16-1.67-10.3-4.31-14.61-7.6-26.18-20.07-52.16-40.42-78.11-60.79-6.03-4.73-11.06-10.43-13.73-17.82-3.55-9.83-2.35-19.16,4.95-26.64,7.04-7.22,14.76-13.84,22.63-20.15,19.53-15.65,39.3-30.99,59.01-46.41,12.6-9.86,22.78-13.6,37.41-13.62Z"/><path class="cls-23" d="M364.68,111.34c10.12-.23,20,2.93,28.61,9.53,20.89,16.03,41.7,32.18,62.45,48.4,7.38,5.77,14.77,11.58,21.63,17.94,15.01,13.92,12.58,31.46.45,43.36-6.86,6.73-14.61,12.6-22.18,18.57-19.43,15.33-38.91,30.58-58.5,45.7-15,11.58-31.74,15.45-50.02,9.53-5.16-1.67-10.3-4.31-14.61-7.6-26.18-20.07-52.16-40.42-78.11-60.79-6.03-4.73-11.06-10.43-13.73-17.82-3.55-9.83-2.35-19.16,4.95-26.64,7.04-7.22,14.76-13.84,22.63-20.15,19.53-15.65,39.3-30.99,59.01-46.41,12.6-9.86,22.78-13.6,37.41-13.62Z"/><path class="cls-21" d="M364.68,110.46c10.12-.23,20,2.93,28.61,9.53,20.89,16.03,41.7,32.18,62.45,48.4,7.38,5.77,14.77,11.58,21.63,17.94,15.01,13.92,12.58,31.46.45,43.36-6.86,6.73-14.61,12.6-22.18,18.57-19.43,15.33-38.91,30.58-58.5,45.7-15,11.58-31.74,15.45-50.02,9.53-5.16-1.67-10.3-4.31-14.61-7.6-26.18-20.07-52.16-40.42-78.11-60.79-6.03-4.73-11.06-10.43-13.73-17.82-3.55-9.83-2.35-19.16,4.95-26.64,7.04-7.22,14.76-13.84,22.63-20.15,19.53-15.65,39.3-30.99,59.01-46.41,12.6-9.86,22.78-13.6,37.41-13.62Z"/><path class="cls-22" d="M364.68,109.58c10.12-.23,20,2.93,28.61,9.53,20.89,16.03,41.7,32.18,62.45,48.4,7.38,5.77,14.77,11.58,21.63,17.94,15.01,13.92,12.58,31.46.45,43.36-6.86,6.73-14.61,12.6-22.18,18.57-19.43,15.33-38.91,30.58-58.5,45.7-15,11.58-31.74,15.45-50.02,9.53-5.16-1.67-10.3-4.31-14.61-7.6-26.18-20.07-52.16-40.42-78.11-60.79-6.03-4.73-11.06-10.43-13.73-17.82-3.55-9.83-2.35-19.16,4.95-26.64,7.04-7.22,14.76-13.84,22.63-20.15,19.53-15.65,39.3-30.99,59.01-46.41,12.6-9.86,22.78-13.6,37.41-13.62Z"/><path class="cls-18" d="M364.68,108.7c10.12-.23,20,2.93,28.61,9.53,20.89,16.03,41.7,32.18,62.45,48.4,7.38,5.77,14.77,11.58,21.63,17.94,15.01,13.92,12.58,31.46.45,43.36-6.86,6.73-14.61,12.6-22.18,18.57-19.43,15.33-38.91,30.58-58.5,45.7-15,11.58-31.74,15.45-50.02,9.53-5.16-1.67-10.3-4.31-14.61-7.6-26.18-20.07-52.16-40.42-78.11-60.79-6.03-4.73-11.06-10.43-13.73-17.82-3.55-9.83-2.35-19.16,4.95-26.64,7.04-7.22,14.76-13.84,22.63-20.15,19.53-15.65,39.3-30.99,59.01-46.41,12.6-9.86,22.78-13.6,37.41-13.62Z"/><path class="cls-17" d="M364.68,107.82c10.12-.23,20,2.93,28.61,9.53,20.89,16.03,41.7,32.18,62.45,48.4,7.38,5.77,14.77,11.58,21.63,17.94,15.01,13.92,12.58,31.46.45,43.36-6.86,6.73-14.61,12.6-22.18,18.57-19.43,15.33-38.91,30.58-58.5,45.7-15,11.58-31.74,15.45-50.02,9.53-5.16-1.67-10.3-4.31-14.61-7.6-26.18-20.07-52.16-40.42-78.11-60.79-6.03-4.73-11.06-10.43-13.73-17.82-3.55-9.83-2.35-19.16,4.95-26.64,7.04-7.22,14.76-13.84,22.63-20.15,19.53-15.65,39.3-30.99,59.01-46.41,12.6-9.86,22.78-13.6,37.41-13.62Z"/><path class="cls-20" d="M364.68,106.94c10.12-.23,20,2.93,28.61,9.53,20.89,16.03,41.7,32.18,62.45,48.4,7.38,5.77,14.77,11.58,21.63,17.94,15.01,13.92,12.58,31.46.45,43.36-6.86,6.73-14.61,12.6-22.18,18.57-19.43,15.33-38.91,30.58-58.5,45.7-15,11.58-31.74,15.45-50.02,9.53-5.16-1.67-10.3-4.31-14.61-7.6-26.18-20.07-52.16-40.42-78.11-60.79-6.03-4.73-11.06-10.43-13.73-17.82-3.55-9.83-2.35-19.16,4.95-26.64,7.04-7.22,14.76-13.84,22.63-20.15,19.53-15.65,39.3-30.99,59.01-46.41,12.6-9.86,22.78-13.6,37.41-13.62Z"/><path class="cls-37" d="M364.68,106.06c10.12-.23,20,2.93,28.61,9.53,20.89,16.03,41.7,32.18,62.45,48.4,7.38,5.77,14.77,11.58,21.63,17.94,15.01,13.92,12.58,31.46.45,43.36-6.86,6.73-14.61,12.6-22.18,18.57-19.43,15.33-38.91,30.58-58.5,45.7-15,11.58-31.74,15.45-50.02,9.53-5.16-1.67-10.3-4.31-14.61-7.6-26.18-20.07-52.16-40.42-78.11-60.79-6.03-4.73-11.06-10.43-13.73-17.82-3.55-9.83-2.35-19.16,4.95-26.64,7.04-7.22,14.76-13.84,22.63-20.15,19.53-15.65,39.3-30.99,59.01-46.41,12.6-9.86,22.78-13.6,37.41-13.62Z"/><path class="cls-38" d="M364.68,105.18c10.12-.23,20,2.93,28.61,9.53,20.89,16.03,41.7,32.18,62.45,48.4,7.38,5.77,14.77,11.58,21.63,17.94,15.01,13.92,12.58,31.46.45,43.36-6.86,6.73-14.61,12.6-22.18,18.57-19.43,15.33-38.91,30.58-58.5,45.7-15,11.58-31.74,15.45-50.02,9.53-5.16-1.67-10.3-4.31-14.61-7.6-26.18-20.07-52.16-40.42-78.11-60.79-6.03-4.73-11.06-10.43-13.73-17.82-3.55-9.83-2.35-19.16,4.95-26.64,7.04-7.22,14.76-13.84,22.63-20.15,19.53-15.65,39.3-30.99,59.01-46.41,12.6-9.86,22.78-13.6,37.41-13.62Z"/><path class="cls-39" d="M364.68,105.04c10.12-.23,20,2.93,28.61,9.53,20.89,16.03,41.7,32.18,62.45,48.4,7.38,5.77,14.77,11.58,21.63,17.94,15.01,13.92,12.58,31.46.45,43.36-6.86,6.73-14.61,12.6-22.18,18.57-19.43,15.33-38.91,30.58-58.5,45.7-15,11.58-31.74,15.45-50.02,9.53-5.16-1.67-10.3-4.31-14.61-7.6-26.18-20.07-52.16-40.42-78.11-60.79-6.03-4.73-11.06-10.43-13.73-17.82-3.55-9.83-2.35-19.16,4.95-26.64,7.04-7.22,14.76-13.84,22.63-20.15,19.53-15.65,39.3-30.99,59.01-46.41,12.6-9.86,22.78-13.6,37.41-13.62Z"/><path class="cls-7" d="M364.68,104.16c10.12-.23,20,2.93,28.61,9.53,20.89,16.03,41.7,32.18,62.45,48.4,7.38,5.77,14.77,11.58,21.63,17.94,15.01,13.92,12.58,31.46.45,43.36-6.86,6.73-14.61,12.6-22.18,18.57-19.43,15.33-38.91,30.58-58.5,45.7-15,11.58-31.74,15.45-50.02,9.53-5.16-1.67-10.3-4.31-14.61-7.6-26.18-20.07-52.16-40.42-78.11-60.79-6.03-4.73-11.06-10.43-13.73-17.82-3.55-9.83-2.35-19.16,4.95-26.64,7.04-7.22,14.76-13.84,22.63-20.15,19.53-15.65,39.3-30.99,59.01-46.41,12.6-9.86,22.78-13.6,37.41-13.62Z"/><path class="cls-1" d="M364.68,103.28c10.12-.23,20,2.93,28.61,9.53,20.89,16.03,41.7,32.18,62.45,48.4,7.38,5.77,14.77,11.58,21.63,17.94,15.01,13.92,12.58,31.46.45,43.36-6.86,6.73-14.61,12.6-22.18,18.57-19.43,15.33-38.91,30.58-58.5,45.7-15,11.58-31.74,15.45-50.02,9.53-5.16-1.67-10.3-4.31-14.61-7.6-26.18-20.07-52.16-40.42-78.11-60.79-6.03-4.73-11.06-10.43-13.73-17.82-3.55-9.83-2.35-19.16,4.95-26.64,7.04-7.22,14.76-13.84,22.63-20.15,19.53-15.65,39.3-30.99,59.01-46.41,12.6-9.86,22.78-13.6,37.41-13.62Z"/><path class="cls-4" d="M364.68,102.4c10.12-.23,20,2.93,28.61,9.53,20.89,16.03,41.7,32.18,62.45,48.4,7.38,5.77,14.77,11.58,21.63,17.94,15.01,13.92,12.58,31.46.45,43.36-6.86,6.73-14.61,12.6-22.18,18.57-19.43,15.33-38.91,30.58-58.5,45.7-15,11.58-31.74,15.45-50.02,9.53-5.16-1.67-10.3-4.31-14.61-7.6-26.18-20.07-52.16-40.42-78.11-60.79-6.03-4.73-11.06-10.43-13.73-17.82-3.55-9.83-2.35-19.16,4.95-26.64,7.04-7.22,14.76-13.84,22.63-20.15,19.53-15.65,39.3-30.99,59.01-46.41,12.6-9.86,22.78-13.6,37.41-13.62Z"/><path class="cls-2" d="M364.68,101.52c10.12-.23,20,2.93,28.61,9.53,20.89,16.03,41.7,32.18,62.45,48.4,7.38,5.77,14.77,11.58,21.63,17.94,15.01,13.92,12.58,31.46.45,43.36-6.86,6.73-14.61,12.6-22.18,18.57-19.43,15.33-38.91,30.58-58.5,45.7-15,11.58-31.74,15.45-50.02,9.53-5.16-1.67-10.3-4.31-14.61-7.6-26.18-20.07-52.16-40.42-78.11-60.79-6.03-4.73-11.06-10.43-13.73-17.82-3.55-9.83-2.35-19.16,4.95-26.64,7.04-7.22,14.76-13.84,22.63-20.15,19.53-15.65,39.3-30.99,59.01-46.41,12.6-9.86,22.78-13.6,37.41-13.62Z"/><path class="cls-3" d="M364.68,100.64c10.12-.23,20,2.93,28.61,9.53,20.89,16.03,41.7,32.18,62.45,48.4,7.38,5.77,14.77,11.58,21.63,17.94,15.01,13.92,12.58,31.46.45,43.36-6.86,6.73-14.61,12.6-22.18,18.57-19.43,15.33-38.91,30.58-58.5,45.7-15,11.58-31.74,15.45-50.02,9.53-5.16-1.67-10.3-4.31-14.61-7.6-26.18-20.07-52.16-40.42-78.11-60.79-6.03-4.73-11.06-10.43-13.73-17.82-3.55-9.83-2.35-19.16,4.95-26.64,7.04-7.22,14.76-13.84,22.63-20.15,19.53-15.65,39.3-30.99,59.01-46.41,12.6-9.86,22.78-13.6,37.41-13.62Z"/><path class="cls-5" d="M364.68,99.77c10.12-.23,20,2.93,28.61,9.53,20.89,16.03,41.7,32.18,62.45,48.4,7.38,5.77,14.77,11.58,21.63,17.94,15.01,13.92,12.58,31.46.45,43.36-6.86,6.73-14.61,12.6-22.18,18.57-19.43,15.33-38.91,30.58-58.5,45.7-15,11.58-31.74,15.45-50.02,9.53-5.16-1.67-10.3-4.31-14.61-7.6-26.18-20.07-52.16-40.42-78.11-60.79-6.03-4.73-11.06-10.43-13.73-17.82-3.55-9.83-2.35-19.16,4.95-26.64,7.04-7.22,14.76-13.84,22.63-20.15,19.53-15.65,39.3-30.99,59.01-46.41,12.6-9.86,22.78-13.6,37.41-13.62Z"/><path class="cls-6" d="M364.68,98.89c10.12-.23,20,2.93,28.61,9.53,20.89,16.03,41.7,32.18,62.45,48.4,7.38,5.77,14.77,11.58,21.63,17.94,15.01,13.92,12.58,31.46.45,43.36-6.86,6.73-14.61,12.6-22.18,18.57-19.43,15.33-38.91,30.58-58.5,45.7-15,11.58-31.74,15.45-50.02,9.53-5.16-1.67-10.3-4.31-14.61-7.6-26.18-20.07-52.16-40.42-78.11-60.79-6.03-4.73-11.06-10.43-13.73-17.82-3.55-9.83-2.35-19.16,4.95-26.64,7.04-7.22,14.76-13.84,22.63-20.15,19.53-15.65,39.3-30.99,59.01-46.41,12.6-9.86,22.78-13.6,37.41-13.62Z"/><path class="cls-8" d="M364.68,98.01c10.12-.23,20,2.93,28.61,9.53,20.89,16.03,41.7,32.18,62.45,48.4,7.38,5.77,14.77,11.58,21.63,17.94,15.01,13.92,12.58,31.46.45,43.36-6.86,6.73-14.61,12.6-22.18,18.57-19.43,15.33-38.91,30.58-58.5,45.7-15,11.58-31.74,15.45-50.02,9.53-5.16-1.67-10.3-4.31-14.61-7.6-26.18-20.07-52.16-40.42-78.11-60.79-6.03-4.73-11.06-10.43-13.73-17.82-3.55-9.83-2.35-19.16,4.95-26.64,7.04-7.22,14.76-13.84,22.63-20.15,19.53-15.65,39.3-30.99,59.01-46.41,12.6-9.86,22.78-13.6,37.41-13.62Z"/><path class="cls-93" d="M364.68,97.13c10.12-.23,20,2.93,28.61,9.53,20.89,16.03,41.7,32.18,62.45,48.4,7.38,5.77,14.77,11.58,21.63,17.94,15.01,13.92,12.58,31.46.45,43.36-6.86,6.73-14.61,12.6-22.18,18.57-19.43,15.33-38.91,30.58-58.5,45.7-15,11.58-31.74,15.45-50.02,9.53-5.16-1.67-10.3-4.31-14.61-7.6-26.18-20.07-52.16-40.42-78.11-60.79-6.03-4.73-11.06-10.43-13.73-17.82-3.55-9.83-2.35-19.16,4.95-26.64,7.04-7.22,14.76-13.84,22.63-20.15,19.53-15.65,39.3-30.99,59.01-46.41,12.6-9.86,22.78-13.6,37.41-13.62Z"/><path class="cls-92" d="M364.68,96.25c10.12-.23,20,2.93,28.61,9.53,20.89,16.03,41.7,32.18,62.45,48.4,7.38,5.77,14.77,11.58,21.63,17.94,15.01,13.92,12.58,31.46.45,43.36-6.86,6.73-14.61,12.6-22.18,18.57-19.43,15.33-38.91,30.58-58.5,45.7-15,11.58-31.74,15.45-50.02,9.53-5.16-1.67-10.3-4.31-14.61-7.6-26.18-20.07-52.16-40.42-78.11-60.79-6.03-4.73-11.06-10.43-13.73-17.82-3.55-9.83-2.35-19.16,4.95-26.64,7.04-7.22,14.76-13.84,22.63-20.15,19.53-15.65,39.3-30.99,59.01-46.41,12.6-9.86,22.78-13.6,37.41-13.62Z"/><path class="cls-89" d="M364.68,95.37c10.12-.23,20,2.93,28.61,9.53,20.89,16.03,41.7,32.18,62.45,48.4,7.38,5.77,14.77,11.58,21.63,17.94,15.01,13.92,12.58,31.46.45,43.36-6.86,6.73-14.61,12.6-22.18,18.57-19.43,15.33-38.91,30.58-58.5,45.7-15,11.58-31.74,15.45-50.02,9.53-5.16-1.67-10.3-4.31-14.61-7.6-26.18-20.07-52.16-40.42-78.11-60.79-6.03-4.73-11.06-10.43-13.73-17.82-3.55-9.83-2.35-19.16,4.95-26.64,7.04-7.22,14.76-13.84,22.63-20.15,19.53-15.65,39.3-30.99,59.01-46.41,12.6-9.86,22.78-13.6,37.41-13.62Z"/><path class="cls-76" d="M364.68,94.49c10.12-.23,20,2.93,28.61,9.53,20.89,16.03,41.7,32.18,62.45,48.4,7.38,5.77,14.77,11.58,21.63,17.94,15.01,13.92,12.58,31.46.45,43.36-6.86,6.73-14.61,12.6-22.18,18.57-19.43,15.33-38.91,30.58-58.5,45.7-15,11.58-31.74,15.45-50.02,9.53-5.16-1.67-10.3-4.31-14.61-7.6-26.18-20.07-52.16-40.42-78.11-60.79-6.03-4.73-11.06-10.43-13.73-17.82-3.55-9.83-2.35-19.16,4.95-26.64,7.04-7.22,14.76-13.84,22.63-20.15,19.53-15.65,39.3-30.99,59.01-46.41,12.6-9.86,22.78-13.6,37.41-13.62Z"/><path class="cls-75" d="M364.68,93.61c10.12-.23,20,2.93,28.61,9.53,20.89,16.03,41.7,32.18,62.45,48.4,7.38,5.77,14.77,11.58,21.63,17.94,15.01,13.92,12.58,31.46.45,43.36-6.86,6.73-14.61,12.6-22.18,18.57-19.43,15.33-38.91,30.58-58.5,45.7-15,11.58-31.74,15.45-50.02,9.53-5.16-1.67-10.3-4.31-14.61-7.6-26.18-20.07-52.16-40.42-78.11-60.79-6.03-4.73-11.06-10.43-13.73-17.82-3.55-9.83-2.35-19.16,4.95-26.64,7.04-7.22,14.76-13.84,22.63-20.15,19.53-15.65,39.3-30.99,59.01-46.41,12.6-9.86,22.78-13.6,37.41-13.62Z"/><path class="cls-74" d="M364.68,92.74c10.12-.23,20,2.93,28.61,9.53,20.89,16.03,41.7,32.18,62.45,48.4,7.38,5.77,14.77,11.58,21.63,17.94,15.01,13.92,12.58,31.46.45,43.36-6.86,6.73-14.61,12.6-22.18,18.57-19.43,15.33-38.91,30.58-58.5,45.7-15,11.58-31.74,15.45-50.02,9.53-5.16-1.67-10.3-4.31-14.61-7.6-26.18-20.07-52.16-40.42-78.11-60.79-6.03-4.73-11.06-10.43-13.73-17.82-3.55-9.83-2.35-19.16,4.95-26.64,7.04-7.22,14.76-13.84,22.63-20.15,19.53-15.65,39.3-30.99,59.01-46.41,12.6-9.86,22.78-13.6,37.41-13.62Z"/><path class="cls-90" d="M364.68,91.86c10.12-.23,20,2.93,28.61,9.53,20.89,16.03,41.7,32.18,62.45,48.4,7.38,5.77,14.77,11.58,21.63,17.94,15.01,13.92,12.58,31.46.45,43.36-6.86,6.73-14.61,12.6-22.18,18.57-19.43,15.33-38.91,30.58-58.5,45.7-15,11.58-31.74,15.45-50.02,9.53-5.16-1.67-10.3-4.31-14.61-7.6-26.18-20.07-52.16-40.42-78.11-60.79-6.03-4.73-11.06-10.43-13.73-17.82-3.55-9.83-2.35-19.16,4.95-26.64,7.04-7.22,14.76-13.84,22.63-20.15,19.53-15.65,39.3-30.99,59.01-46.41,12.6-9.86,22.78-13.6,37.41-13.62Z"/><path class="cls-91" d="M364.68,90.98c10.12-.23,20,2.93,28.61,9.53,20.89,16.03,41.7,32.18,62.45,48.4,7.38,5.77,14.77,11.58,21.63,17.94,15.01,13.92,12.58,31.46.45,43.36-6.86,6.73-14.61,12.6-22.18,18.57-19.43,15.33-38.91,30.58-58.5,45.7-15,11.58-31.74,15.45-50.02,9.53-5.16-1.67-10.3-4.31-14.61-7.6-26.18-20.07-52.16-40.42-78.11-60.79-6.03-4.73-11.06-10.43-13.73-17.82-3.55-9.83-2.35-19.16,4.95-26.64,7.04-7.22,14.76-13.84,22.63-20.15,19.53-15.65,39.3-30.99,59.01-46.41,12.6-9.86,22.78-13.6,37.41-13.62Z"/><path class="cls-77" d="M364.68,90.1c10.12-.23,20,2.93,28.61,9.53,20.89,16.03,41.7,32.18,62.45,48.4,7.38,5.77,14.77,11.58,21.63,17.94,15.01,13.92,12.58,31.46.45,43.36-6.86,6.73-14.61,12.6-22.18,18.57-19.43,15.33-38.91,30.58-58.5,45.7-15,11.58-31.74,15.45-50.02,9.53-5.16-1.67-10.3-4.31-14.61-7.6-26.18-20.07-52.16-40.42-78.11-60.79-6.03-4.73-11.06-10.43-13.73-17.82-3.55-9.83-2.35-19.16,4.95-26.64,7.04-7.22,14.76-13.84,22.63-20.15,19.53-15.65,39.3-30.99,59.01-46.41,12.6-9.86,22.78-13.6,37.41-13.62Z"/><path class="cls-78" d="M364.68,89.22c10.12-.23,20,2.93,28.61,9.53,20.89,16.03,41.7,32.18,62.45,48.4,7.38,5.77,14.77,11.58,21.63,17.94,15.01,13.92,12.58,31.46.45,43.36-6.86,6.73-14.61,12.6-22.18,18.57-19.43,15.33-38.91,30.58-58.5,45.7-15,11.58-31.74,15.45-50.02,9.53-5.16-1.67-10.3-4.31-14.61-7.6-26.18-20.07-52.16-40.42-78.11-60.79-6.03-4.73-11.06-10.43-13.73-17.82-3.55-9.83-2.35-19.16,4.95-26.64,7.04-7.22,14.76-13.84,22.63-20.15,19.53-15.65,39.3-30.99,59.01-46.41,12.6-9.86,22.78-13.6,37.41-13.62Z"/><path class="cls-82" d="M364.68,88.34c10.12-.23,20,2.93,28.61,9.53,20.89,16.03,41.7,32.18,62.45,48.4,7.38,5.77,14.77,11.58,21.63,17.94,15.01,13.92,12.58,31.46.45,43.36-6.86,6.73-14.61,12.6-22.18,18.57-19.43,15.33-38.91,30.58-58.5,45.7-15,11.58-31.74,15.45-50.02,9.53-5.16-1.67-10.3-4.31-14.61-7.6-26.18-20.07-52.16-40.42-78.11-60.79-6.03-4.73-11.06-10.43-13.73-17.82-3.55-9.83-2.35-19.16,4.95-26.64,7.04-7.22,14.76-13.84,22.63-20.15,19.53-15.65,39.3-30.99,59.01-46.41,12.6-9.86,22.78-13.6,37.41-13.62Z"/><path class="cls-84" d="M364.68,87.46c10.12-.23,20,2.93,28.61,9.53,20.89,16.03,41.7,32.18,62.45,48.4,7.38,5.77,14.77,11.58,21.63,17.94,15.01,13.92,12.58,31.46.45,43.36-6.86,6.73-14.61,12.6-22.18,18.57-19.43,15.33-38.91,30.58-58.5,45.7-15,11.58-31.74,15.45-50.02,9.53-5.16-1.67-10.3-4.31-14.61-7.6-26.18-20.07-52.16-40.42-78.11-60.79-6.03-4.73-11.06-10.43-13.73-17.82-3.55-9.83-2.35-19.16,4.95-26.64,7.04-7.22,14.76-13.84,22.63-20.15,19.53-15.65,39.3-30.99,59.01-46.41,12.6-9.86,22.78-13.6,37.41-13.62Z"/><path class="cls-85" d="M364.68,86.58c10.12-.23,20,2.93,28.61,9.53,20.89,16.03,41.7,32.18,62.45,48.4,7.38,5.77,14.77,11.58,21.63,17.94,15.01,13.92,12.58,31.46.45,43.36-6.86,6.73-14.61,12.6-22.18,18.57-19.43,15.33-38.91,30.58-58.5,45.7-15,11.58-31.74,15.45-50.02,9.53-5.16-1.67-10.3-4.31-14.61-7.6-26.18-20.07-52.16-40.42-78.11-60.79-6.03-4.73-11.06-10.43-13.73-17.82-3.55-9.83-2.35-19.16,4.95-26.64,7.04-7.22,14.76-13.84,22.63-20.15,19.53-15.65,39.3-30.99,59.01-46.41,12.6-9.86,22.78-13.6,37.41-13.62Z"/><path class="cls-86" d="M364.68,85.71c10.12-.23,20,2.93,28.61,9.53,20.89,16.03,41.7,32.18,62.45,48.4,7.38,5.77,14.77,11.58,21.63,17.94,15.01,13.92,12.58,31.46.45,43.36-6.86,6.73-14.61,12.6-22.18,18.57-19.43,15.33-38.91,30.58-58.5,45.7-15,11.58-31.74,15.45-50.02,9.53-5.16-1.67-10.3-4.31-14.61-7.6-26.18-20.07-52.16-40.42-78.11-60.79-6.03-4.73-11.06-10.43-13.73-17.82-3.55-9.83-2.35-19.16,4.95-26.64,7.04-7.22,14.76-13.84,22.63-20.15,19.53-15.65,39.3-30.99,59.01-46.41,12.6-9.86,22.78-13.6,37.41-13.62Z"/><path class="cls-79" d="M364.68,84.83c10.12-.23,20,2.93,28.61,9.53,20.89,16.03,41.7,32.18,62.45,48.4,7.38,5.77,14.77,11.58,21.63,17.94,15.01,13.92,12.58,31.46.45,43.36-6.86,6.73-14.61,12.6-22.18,18.57-19.43,15.33-38.91,30.58-58.5,45.7-15,11.58-31.74,15.45-50.02,9.53-5.16-1.67-10.3-4.31-14.61-7.6-26.18-20.07-52.16-40.42-78.11-60.79-6.03-4.73-11.06-10.43-13.73-17.82-3.55-9.83-2.35-19.16,4.95-26.64,7.04-7.22,14.76-13.84,22.63-20.15,19.53-15.65,39.3-30.99,59.01-46.41,12.6-9.86,22.78-13.6,37.41-13.62Z"/><path class="cls-80" d="M364.68,83.95c10.12-.23,20,2.93,28.61,9.53,20.89,16.03,41.7,32.18,62.45,48.4,7.38,5.77,14.77,11.58,21.63,17.94,15.01,13.92,12.58,31.46.45,43.36-6.86,6.73-14.61,12.6-22.18,18.57-19.43,15.33-38.91,30.58-58.5,45.7-15,11.58-31.74,15.45-50.02,9.53-5.16-1.67-10.3-4.31-14.61-7.6-26.18-20.07-52.16-40.42-78.11-60.79-6.03-4.73-11.06-10.43-13.73-17.82-3.55-9.83-2.35-19.16,4.95-26.64,7.04-7.22,14.76-13.84,22.63-20.15,19.53-15.65,39.3-30.99,59.01-46.41,12.6-9.86,22.78-13.6,37.41-13.62Z"/><path class="cls-87" d="M364.68,83.07c10.12-.23,20,2.93,28.61,9.53,20.89,16.03,41.7,32.18,62.45,48.4,7.38,5.77,14.77,11.58,21.63,17.94,15.01,13.92,12.58,31.46.45,43.36-6.86,6.73-14.61,12.6-22.18,18.57-19.43,15.33-38.91,30.58-58.5,45.7-15,11.58-31.74,15.45-50.02,9.53-5.16-1.67-10.3-4.31-14.61-7.6-26.18-20.07-52.16-40.42-78.11-60.79-6.03-4.73-11.06-10.43-13.73-17.82-3.55-9.83-2.35-19.16,4.95-26.64,7.04-7.22,14.76-13.84,22.63-20.15,19.53-15.65,39.3-30.99,59.01-46.41,12.6-9.86,22.78-13.6,37.41-13.62Z"/><path class="cls-88" d="M364.68,82.19c10.12-.23,20,2.93,28.61,9.53,20.89,16.03,41.7,32.18,62.45,48.4,7.38,5.77,14.77,11.58,21.63,17.94,15.01,13.92,12.58,31.46.45,43.36-6.86,6.73-14.61,12.6-22.18,18.57-19.43,15.33-38.91,30.58-58.5,45.7-15,11.58-31.74,15.45-50.02,9.53-5.16-1.67-10.3-4.31-14.61-7.6-26.18-20.07-52.16-40.42-78.11-60.79-6.03-4.73-11.06-10.43-13.73-17.82-3.55-9.83-2.35-19.16,4.95-26.64,7.04-7.22,14.76-13.84,22.63-20.15,19.53-15.65,39.3-30.99,59.01-46.41,12.6-9.86,22.78-13.6,37.41-13.62Z"/><path class="cls-83" d="M364.68,81.31c10.12-.23,20,2.93,28.61,9.53,20.89,16.03,41.7,32.18,62.45,48.4,7.38,5.77,14.77,11.58,21.63,17.94,15.01,13.92,12.58,31.46.45,43.36-6.86,6.73-14.61,12.6-22.18,18.57-19.43,15.33-38.91,30.58-58.5,45.7-15,11.58-31.74,15.45-50.02,9.53-5.16-1.67-10.3-4.31-14.61-7.6-26.18-20.07-52.16-40.42-78.11-60.79-6.03-4.73-11.06-10.43-13.73-17.82-3.55-9.83-2.35-19.16,4.95-26.64,7.04-7.22,14.76-13.84,22.63-20.15,19.53-15.65,39.3-30.99,59.01-46.41,12.6-9.86,22.78-13.6,37.41-13.62Z"/><path class="cls-81" d="M364.68,80.43c10.12-.23,20,2.93,28.61,9.53,20.89,16.03,41.7,32.18,62.45,48.4,7.38,5.77,14.77,11.58,21.63,17.94,15.01,13.92,12.58,31.46.45,43.36-6.86,6.73-14.61,12.6-22.18,18.57-19.43,15.33-38.91,30.58-58.5,45.7-15,11.58-31.74,15.45-50.02,9.53-5.16-1.67-10.3-4.31-14.61-7.6-26.18-20.07-52.16-40.42-78.11-60.79-6.03-4.73-11.06-10.43-13.73-17.82-3.55-9.83-2.35-19.16,4.95-26.64,7.04-7.22,14.76-13.84,22.63-20.15,19.53-15.65,39.3-30.99,59.01-46.41,12.6-9.86,22.78-13.6,37.41-13.62Z"/><path class="cls-72" d="M364.68,79.55c10.12-.23,20,2.93,28.61,9.53,20.89,16.03,41.7,32.18,62.45,48.4,7.38,5.77,14.77,11.58,21.63,17.94,15.01,13.92,12.58,31.46.45,43.36-6.86,6.73-14.61,12.6-22.18,18.57-19.43,15.33-38.91,30.58-58.5,45.7-15,11.58-31.74,15.45-50.02,9.53-5.16-1.67-10.3-4.31-14.61-7.6-26.18-20.07-52.16-40.42-78.11-60.79-6.03-4.73-11.06-10.43-13.73-17.82-3.55-9.83-2.35-19.16,4.95-26.64,7.04-7.22,14.76-13.84,22.63-20.15,19.53-15.65,39.3-30.99,59.01-46.41,12.6-9.86,22.78-13.6,37.41-13.62Z"/><path class="cls-73" d="M364.68,78.68c10.12-.23,20,2.93,28.61,9.53,20.89,16.03,41.7,32.18,62.45,48.4,7.38,5.77,14.77,11.58,21.63,17.94,15.01,13.92,12.58,31.46.45,43.36-6.86,6.73-14.61,12.6-22.18,18.57-19.43,15.33-38.91,30.58-58.5,45.7-15,11.58-31.74,15.45-50.02,9.53-5.16-1.67-10.3-4.31-14.61-7.6-26.18-20.07-52.16-40.42-78.11-60.79-6.03-4.73-11.06-10.43-13.73-17.82-3.55-9.83-2.35-19.16,4.95-26.64,7.04-7.22,14.76-13.84,22.63-20.15,19.53-15.65,39.3-30.99,59.01-46.41,12.6-9.86,22.78-13.6,37.41-13.62Z"/><path class="cls-40" d="M364.68,78.53c10.12-.23,20,2.93,28.61,9.53,20.89,16.03,41.7,32.18,62.45,48.4,7.38,5.77,14.77,11.58,21.63,17.94,15.01,13.92,12.58,31.46.45,43.36-6.86,6.73-14.61,12.6-22.18,18.57-19.43,15.33-38.91,30.58-58.5,45.7-15,11.58-31.74,15.45-50.02,9.53-5.16-1.67-10.3-4.31-14.61-7.6-26.18-20.07-52.16-40.42-78.11-60.79-6.03-4.73-11.06-10.43-13.73-17.82-3.55-9.83-2.35-19.16,4.95-26.64,7.04-7.22,14.76-13.84,22.63-20.15,19.53-15.65,39.3-30.99,59.01-46.41,12.6-9.86,22.78-13.6,37.41-13.62Z"/><path class="cls-11" d="M364.68,77.65c10.12-.23,20,2.93,28.61,9.53,20.89,16.03,41.7,32.18,62.45,48.4,7.38,5.77,14.77,11.58,21.63,17.94,15.01,13.92,12.58,31.46.45,43.36-6.86,6.73-14.61,12.6-22.18,18.57-19.43,15.33-38.91,30.58-58.5,45.7-15,11.58-31.74,15.45-50.02,9.53-5.16-1.67-10.3-4.31-14.61-7.6-26.18-20.07-52.16-40.42-78.11-60.79-6.03-4.73-11.06-10.43-13.73-17.82-3.55-9.83-2.35-19.16,4.95-26.64,7.04-7.22,14.76-13.84,22.63-20.15,19.53-15.65,39.3-30.99,59.01-46.41,12.6-9.86,22.78-13.6,37.41-13.62Z"/><path class="cls-14" d="M364.68,76.77c10.12-.23,20,2.93,28.61,9.53,20.89,16.03,41.7,32.18,62.45,48.4,7.38,5.77,14.77,11.58,21.63,17.94,15.01,13.92,12.58,31.46.45,43.36-6.86,6.73-14.61,12.6-22.18,18.57-19.43,15.33-38.91,30.58-58.5,45.7-15,11.58-31.74,15.45-50.02,9.53-5.16-1.67-10.3-4.31-14.61-7.6-26.18-20.07-52.16-40.42-78.11-60.79-6.03-4.73-11.06-10.43-13.73-17.82-3.55-9.83-2.35-19.16,4.95-26.64,7.04-7.22,14.76-13.84,22.63-20.15,19.53-15.65,39.3-30.99,59.01-46.41,12.6-9.86,22.78-13.6,37.41-13.62Z"/><path class="cls-16" d="M364.68,75.89c10.12-.23,20,2.93,28.61,9.53,20.89,16.03,41.7,32.18,62.45,48.4,7.38,5.77,14.77,11.58,21.63,17.94,15.01,13.92,12.58,31.46.45,43.36-6.86,6.73-14.61,12.6-22.18,18.57-19.43,15.33-38.91,30.58-58.5,45.7-15,11.58-31.74,15.45-50.02,9.53-5.16-1.67-10.3-4.31-14.61-7.6-26.18-20.07-52.16-40.42-78.11-60.79-6.03-4.73-11.06-10.43-13.73-17.82-3.55-9.83-2.35-19.16,4.95-26.64,7.04-7.22,14.76-13.84,22.63-20.15,19.53-15.65,39.3-30.99,59.01-46.41,12.6-9.86,22.78-13.6,37.41-13.62Z"/><path class="cls-13" d="M364.68,75.02c10.12-.23,20,2.93,28.61,9.53,20.89,16.03,41.7,32.18,62.45,48.4,7.38,5.77,14.77,11.58,21.63,17.94,15.01,13.92,12.58,31.46.45,43.36-6.86,6.73-14.61,12.6-22.18,18.57-19.43,15.33-38.91,30.58-58.5,45.7-15,11.58-31.74,15.45-50.02,9.53-5.16-1.67-10.3-4.31-14.61-7.6-26.18-20.07-52.16-40.42-78.11-60.79-6.03-4.73-11.06-10.43-13.73-17.82-3.55-9.83-2.35-19.16,4.95-26.64,7.04-7.22,14.76-13.84,22.63-20.15,19.53-15.65,39.3-30.99,59.01-46.41,12.6-9.86,22.78-13.6,37.41-13.62Z"/><path class="cls-15" d="M364.68,74.14c10.12-.23,20,2.93,28.61,9.53,20.89,16.03,41.7,32.18,62.45,48.4,7.38,5.77,14.77,11.58,21.63,17.94,15.01,13.92,12.58,31.46.45,43.36-6.86,6.73-14.61,12.6-22.18,18.57-19.43,15.33-38.91,30.58-58.5,45.7-15,11.58-31.74,15.45-50.02,9.53-5.16-1.67-10.3-4.31-14.61-7.6-26.18-20.07-52.16-40.42-78.11-60.79-6.03-4.73-11.06-10.43-13.73-17.82-3.55-9.83-2.35-19.16,4.95-26.64,7.04-7.22,14.76-13.84,22.63-20.15,19.53-15.65,39.3-30.99,59.01-46.41,12.6-9.86,22.78-13.6,37.41-13.62Z"/><path class="cls-9" d="M364.68,73.26c10.12-.23,20,2.93,28.61,9.53,20.89,16.03,41.7,32.18,62.45,48.4,7.38,5.77,14.77,11.58,21.63,17.94,15.01,13.92,12.58,31.46.45,43.36-6.86,6.73-14.61,12.6-22.18,18.57-19.43,15.33-38.91,30.58-58.5,45.7-15,11.58-31.74,15.45-50.02,9.53-5.16-1.67-10.3-4.31-14.61-7.6-26.18-20.07-52.16-40.42-78.11-60.79-6.03-4.73-11.06-10.43-13.73-17.82-3.55-9.83-2.35-19.16,4.95-26.64,7.04-7.22,14.76-13.84,22.63-20.15,19.53-15.65,39.3-30.99,59.01-46.41,12.6-9.86,22.78-13.6,37.41-13.62Z"/><path class="cls-12" d="M364.68,72.38c10.12-.23,20,2.93,28.61,9.53,20.89,16.03,41.7,32.18,62.45,48.4,7.38,5.77,14.77,11.58,21.63,17.94,15.01,13.92,12.58,31.46.45,43.36-6.86,6.73-14.61,12.6-22.18,18.57-19.43,15.33-38.91,30.58-58.5,45.7-15,11.58-31.74,15.45-50.02,9.53-5.16-1.67-10.3-4.31-14.61-7.6-26.18-20.07-52.16-40.42-78.11-60.79-6.03-4.73-11.06-10.43-13.73-17.82-3.55-9.83-2.35-19.16,4.95-26.64,7.04-7.22,14.76-13.84,22.63-20.15,19.53-15.65,39.3-30.99,59.01-46.41,12.6-9.86,22.78-13.6,37.41-13.62Z"/><path class="cls-10" d="M364.68,71.5c10.12-.23,20,2.93,28.61,9.53,20.89,16.03,41.7,32.18,62.45,48.4,7.38,5.77,14.77,11.58,21.63,17.94,15.01,13.92,12.58,31.46.45,43.36-6.86,6.73-14.61,12.6-22.18,18.57-19.43,15.33-38.91,30.58-58.5,45.7-15,11.58-31.74,15.45-50.02,9.53-5.16-1.67-10.3-4.31-14.61-7.6-26.18-20.07-52.16-40.42-78.11-60.79-6.03-4.73-11.06-10.43-13.73-17.82-3.55-9.83-2.35-19.16,4.95-26.64,7.04-7.22,14.76-13.84,22.63-20.15,19.53-15.65,39.3-30.99,59.01-46.41,12.6-9.86,22.78-13.6,37.41-13.62Z"/><path class="cls-70" d="M364.68,70.62c10.12-.23,20,2.93,28.61,9.53,20.89,16.03,41.7,32.18,62.45,48.4,7.38,5.77,14.77,11.58,21.63,17.94,15.01,13.92,12.58,31.46.45,43.36-6.86,6.73-14.61,12.6-22.18,18.57-19.43,15.33-38.91,30.58-58.5,45.7-15,11.58-31.74,15.45-50.02,9.53-5.16-1.67-10.3-4.31-14.61-7.6-26.18-20.07-52.16-40.42-78.11-60.79-6.03-4.73-11.06-10.43-13.73-17.82-3.55-9.83-2.35-19.16,4.95-26.64,7.04-7.22,14.76-13.84,22.63-20.15,19.53-15.65,39.3-30.99,59.01-46.41,12.6-9.86,22.78-13.6,37.41-13.62Z"/><path class="cls-64" d="M364.68,69.74c10.12-.23,20,2.93,28.61,9.53,20.89,16.03,41.7,32.18,62.45,48.4,7.38,5.77,14.77,11.58,21.63,17.94,15.01,13.92,12.58,31.46.45,43.36-6.86,6.73-14.61,12.6-22.18,18.57-19.43,15.33-38.91,30.58-58.5,45.7-15,11.58-31.74,15.45-50.02,9.53-5.16-1.67-10.3-4.31-14.61-7.6-26.18-20.07-52.16-40.42-78.11-60.79-6.03-4.73-11.06-10.43-13.73-17.82-3.55-9.83-2.35-19.16,4.95-26.64,7.04-7.22,14.76-13.84,22.63-20.15,19.53-15.65,39.3-30.99,59.01-46.41,12.6-9.86,22.78-13.6,37.41-13.62Z"/><path class="cls-67" d="M364.68,68.86c10.12-.23,20,2.93,28.61,9.53,20.89,16.03,41.7,32.18,62.45,48.4,7.38,5.77,14.77,11.58,21.63,17.94,15.01,13.92,12.58,31.46.45,43.36-6.86,6.73-14.61,12.6-22.18,18.57-19.43,15.33-38.91,30.58-58.5,45.7-15,11.58-31.74,15.45-50.02,9.53-5.16-1.67-10.3-4.31-14.61-7.6-26.18-20.07-52.16-40.42-78.11-60.79-6.03-4.73-11.06-10.43-13.73-17.82-3.55-9.83-2.35-19.16,4.95-26.64,7.04-7.22,14.76-13.84,22.63-20.15,19.53-15.65,39.3-30.99,59.01-46.41,12.6-9.86,22.78-13.6,37.41-13.62Z"/><path class="cls-61" d="M364.68,67.99c10.12-.23,20,2.93,28.61,9.53,20.89,16.03,41.7,32.18,62.45,48.4,7.38,5.77,14.77,11.58,21.63,17.94,15.01,13.92,12.58,31.46.45,43.36-6.86,6.73-14.61,12.6-22.18,18.57-19.43,15.33-38.91,30.58-58.5,45.7-15,11.58-31.74,15.45-50.02,9.53-5.16-1.67-10.3-4.31-14.61-7.6-26.18-20.07-52.16-40.42-78.11-60.79-6.03-4.73-11.06-10.43-13.73-17.82-3.55-9.83-2.35-19.16,4.95-26.64,7.04-7.22,14.76-13.84,22.63-20.15,19.53-15.65,39.3-30.99,59.01-46.41,12.6-9.86,22.78-13.6,37.41-13.62Z"/><path class="cls-60" d="M364.68,67.11c10.12-.23,20,2.93,28.61,9.53,20.89,16.03,41.7,32.18,62.45,48.4,7.38,5.77,14.77,11.58,21.63,17.94,15.01,13.92,12.58,31.46.45,43.36-6.86,6.73-14.61,12.6-22.18,18.57-19.43,15.33-38.91,30.58-58.5,45.7-15,11.58-31.74,15.45-50.02,9.53-5.16-1.67-10.3-4.31-14.61-7.6-26.18-20.07-52.16-40.42-78.11-60.79-6.03-4.73-11.06-10.43-13.73-17.82-3.55-9.83-2.35-19.16,4.95-26.64,7.04-7.22,14.76-13.84,22.63-20.15,19.53-15.65,39.3-30.99,59.01-46.41,12.6-9.86,22.78-13.6,37.41-13.62Z"/><path class="cls-63" d="M364.68,66.23c10.12-.23,20,2.93,28.61,9.53,20.89,16.03,41.7,32.18,62.45,48.4,7.38,5.77,14.77,11.58,21.63,17.94,15.01,13.92,12.58,31.46.45,43.36-6.86,6.73-14.61,12.6-22.18,18.57-19.43,15.33-38.91,30.58-58.5,45.7-15,11.58-31.74,15.45-50.02,9.53-5.16-1.67-10.3-4.31-14.61-7.6-26.18-20.07-52.16-40.42-78.11-60.79-6.03-4.73-11.06-10.43-13.73-17.82-3.55-9.83-2.35-19.16,4.95-26.64,7.04-7.22,14.76-13.84,22.63-20.15,19.53-15.65,39.3-30.99,59.01-46.41,12.6-9.86,22.78-13.6,37.41-13.62Z"/><path class="cls-62" d="M364.68,65.35c10.12-.23,20,2.93,28.61,9.53,20.89,16.03,41.7,32.18,62.45,48.4,7.38,5.77,14.77,11.58,21.63,17.94,15.01,13.92,12.58,31.46.45,43.36-6.86,6.73-14.61,12.6-22.18,18.57-19.43,15.33-38.91,30.58-58.5,45.7-15,11.58-31.74,15.45-50.02,9.53-5.16-1.67-10.3-4.31-14.61-7.6-26.18-20.07-52.16-40.42-78.11-60.79-6.03-4.73-11.06-10.43-13.73-17.82-3.55-9.83-2.35-19.16,4.95-26.64,7.04-7.22,14.76-13.84,22.63-20.15,19.53-15.65,39.3-30.99,59.01-46.41,12.6-9.86,22.78-13.6,37.41-13.62Z"/><path class="cls-66" d="M364.68,64.47c10.12-.23,20,2.93,28.61,9.53,20.89,16.03,41.7,32.18,62.45,48.4,7.38,5.77,14.77,11.58,21.63,17.94,15.01,13.92,12.58,31.46.45,43.36-6.86,6.73-14.61,12.6-22.18,18.57-19.43,15.33-38.91,30.58-58.5,45.7-15,11.58-31.74,15.45-50.02,9.53-5.16-1.67-10.3-4.31-14.61-7.6-26.18-20.07-52.16-40.42-78.11-60.79-6.03-4.73-11.06-10.43-13.73-17.82-3.55-9.83-2.35-19.16,4.95-26.64,7.04-7.22,14.76-13.84,22.63-20.15,19.53-15.65,39.3-30.99,59.01-46.41,12.6-9.86,22.78-13.6,37.41-13.62Z"/><path class="cls-65" d="M364.68,63.59c10.12-.23,20,2.93,28.61,9.53,20.89,16.03,41.7,32.18,62.45,48.4,7.38,5.77,14.77,11.58,21.63,17.94,15.01,13.92,12.58,31.46.45,43.36-6.86,6.73-14.61,12.6-22.18,18.57-19.43,15.33-38.91,30.58-58.5,45.7-15,11.58-31.74,15.45-50.02,9.53-5.16-1.67-10.3-4.31-14.61-7.6-26.18-20.07-52.16-40.42-78.11-60.79-6.03-4.73-11.06-10.43-13.73-17.82-3.55-9.83-2.35-19.16,4.95-26.64,7.04-7.22,14.76-13.84,22.63-20.15,19.53-15.65,39.3-30.99,59.01-46.41,12.6-9.86,22.78-13.6,37.41-13.62Z"/><path class="cls-69" d="M364.68,62.71c10.12-.23,20,2.93,28.61,9.53,20.89,16.03,41.7,32.18,62.45,48.4,7.38,5.77,14.77,11.58,21.63,17.94,15.01,13.92,12.58,31.46.45,43.36-6.86,6.73-14.61,12.6-22.18,18.57-19.43,15.33-38.91,30.58-58.5,45.7-15,11.58-31.74,15.45-50.02,9.53-5.16-1.67-10.3-4.31-14.61-7.6-26.18-20.07-52.16-40.42-78.11-60.79-6.03-4.73-11.06-10.43-13.73-17.82-3.55-9.83-2.35-19.16,4.95-26.64,7.04-7.22,14.76-13.84,22.63-20.15,19.53-15.65,39.3-30.99,59.01-46.41,12.6-9.86,22.78-13.6,37.41-13.62Z"/><path class="cls-57" d="M364.68,61.83c10.12-.23,20,2.93,28.61,9.53,20.89,16.03,41.7,32.18,62.45,48.4,7.38,5.77,14.77,11.58,21.63,17.94,15.01,13.92,12.58,31.46.45,43.36-6.86,6.73-14.61,12.6-22.18,18.57-19.43,15.33-38.91,30.58-58.5,45.7-15,11.58-31.74,15.45-50.02,9.53-5.16-1.67-10.3-4.31-14.61-7.6-26.18-20.07-52.16-40.42-78.11-60.79-6.03-4.73-11.06-10.43-13.73-17.82-3.55-9.83-2.35-19.16,4.95-26.64,7.04-7.22,14.76-13.84,22.63-20.15,19.53-15.65,39.3-30.99,59.01-46.41,12.6-9.86,22.78-13.6,37.41-13.62Z"/><path class="cls-59" d="M364.68,60.96c10.12-.23,20,2.93,28.61,9.53,20.89,16.03,41.7,32.18,62.45,48.4,7.38,5.77,14.77,11.58,21.63,17.94,15.01,13.92,12.58,31.46.45,43.36-6.86,6.73-14.61,12.6-22.18,18.57-19.43,15.33-38.91,30.58-58.5,45.7-15,11.58-31.74,15.45-50.02,9.53-5.16-1.67-10.3-4.31-14.61-7.6-26.18-20.07-52.16-40.42-78.11-60.79-6.03-4.73-11.06-10.43-13.73-17.82-3.55-9.83-2.35-19.16,4.95-26.64,7.04-7.22,14.76-13.84,22.63-20.15,19.53-15.65,39.3-30.99,59.01-46.41,12.6-9.86,22.78-13.6,37.41-13.62Z"/><path class="cls-58" d="M364.68,60.08c10.12-.23,20,2.93,28.61,9.53,20.89,16.03,41.7,32.18,62.45,48.4,7.38,5.77,14.77,11.58,21.63,17.94,15.01,13.92,12.58,31.46.45,43.36-6.86,6.73-14.61,12.6-22.18,18.57-19.43,15.33-38.91,30.58-58.5,45.7-15,11.58-31.74,15.45-50.02,9.53-5.16-1.67-10.3-4.31-14.61-7.6-26.18-20.07-52.16-40.42-78.11-60.79-6.03-4.73-11.06-10.43-13.73-17.82-3.55-9.83-2.35-19.16,4.95-26.64,7.04-7.22,14.76-13.84,22.63-20.15,19.53-15.65,39.3-30.99,59.01-46.41,12.6-9.86,22.78-13.6,37.41-13.62Z"/><path class="cls-54" d="M364.68,59.2c10.12-.23,20,2.93,28.61,9.53,20.89,16.03,41.7,32.18,62.45,48.4,7.38,5.77,14.77,11.58,21.63,17.94,15.01,13.92,12.58,31.46.45,43.36-6.86,6.73-14.61,12.6-22.18,18.57-19.43,15.33-38.91,30.58-58.5,45.7-15,11.58-31.74,15.45-50.02,9.53-5.16-1.67-10.3-4.31-14.61-7.6-26.18-20.07-52.16-40.42-78.11-60.79-6.03-4.73-11.06-10.43-13.73-17.82-3.55-9.83-2.35-19.16,4.95-26.64,7.04-7.22,14.76-13.84,22.63-20.15,19.53-15.65,39.3-30.99,59.01-46.41,12.6-9.86,22.78-13.6,37.41-13.62Z"/><path class="cls-56" d="M364.68,58.32c10.12-.23,20,2.93,28.61,9.53,20.89,16.03,41.7,32.18,62.45,48.4,7.38,5.77,14.77,11.58,21.63,17.94,15.01,13.92,12.58,31.46.45,43.36-6.86,6.73-14.61,12.6-22.18,18.57-19.43,15.33-38.91,30.58-58.5,45.7-15,11.58-31.74,15.45-50.02,9.53-5.16-1.67-10.3-4.31-14.61-7.6-26.18-20.07-52.16-40.42-78.11-60.79-6.03-4.73-11.06-10.43-13.73-17.82-3.55-9.83-2.35-19.16,4.95-26.64,7.04-7.22,14.76-13.84,22.63-20.15,19.53-15.65,39.3-30.99,59.01-46.41,12.6-9.86,22.78-13.6,37.41-13.62Z"/><path class="cls-55" d="M364.68,57.44c10.12-.23,20,2.93,28.61,9.53,20.89,16.03,41.7,32.18,62.45,48.4,7.38,5.77,14.77,11.58,21.63,17.94,15.01,13.92,12.58,31.46.45,43.36-6.86,6.73-14.61,12.6-22.18,18.57-19.43,15.33-38.91,30.58-58.5,45.7-15,11.58-31.74,15.45-50.02,9.53-5.16-1.67-10.3-4.31-14.61-7.6-26.18-20.07-52.16-40.42-78.11-60.79-6.03-4.73-11.06-10.43-13.73-17.82-3.55-9.83-2.35-19.16,4.95-26.64,7.04-7.22,14.76-13.84,22.63-20.15,19.53-15.65,39.3-30.99,59.01-46.41,12.6-9.86,22.78-13.6,37.41-13.62Z"/><path class="cls-53" d="M364.68,56.56c10.12-.23,20,2.93,28.61,9.53,20.89,16.03,41.7,32.18,62.45,48.4,7.38,5.77,14.77,11.58,21.63,17.94,15.01,13.92,12.58,31.46.45,43.36-6.86,6.73-14.61,12.6-22.18,18.57-19.43,15.33-38.91,30.58-58.5,45.7-15,11.58-31.74,15.45-50.02,9.53-5.16-1.67-10.3-4.31-14.61-7.6-26.18-20.07-52.16-40.42-78.11-60.79-6.03-4.73-11.06-10.43-13.73-17.82-3.55-9.83-2.35-19.16,4.95-26.64,7.04-7.22,14.76-13.84,22.63-20.15,19.53-15.65,39.3-30.99,59.01-46.41,12.6-9.86,22.78-13.6,37.41-13.62Z"/><path class="cls-52" d="M364.68,55.68c10.12-.23,20,2.93,28.61,9.53,20.89,16.03,41.7,32.18,62.45,48.4,7.38,5.77,14.77,11.58,21.63,17.94,15.01,13.92,12.58,31.46.45,43.36-6.86,6.73-14.61,12.6-22.18,18.57-19.43,15.33-38.91,30.58-58.5,45.7-15,11.58-31.74,15.45-50.02,9.53-5.16-1.67-10.3-4.31-14.61-7.6-26.18-20.07-52.16-40.42-78.11-60.79-6.03-4.73-11.06-10.43-13.73-17.82-3.55-9.83-2.35-19.16,4.95-26.64,7.04-7.22,14.76-13.84,22.63-20.15,19.53-15.65,39.3-30.99,59.01-46.41,12.6-9.86,22.78-13.6,37.41-13.62Z"/><path class="cls-51" d="M364.68,54.8c10.12-.23,20,2.93,28.61,9.53,20.89,16.03,41.7,32.18,62.45,48.4,7.38,5.77,14.77,11.58,21.63,17.94,15.01,13.92,12.58,31.46.45,43.36-6.86,6.73-14.61,12.6-22.18,18.57-19.43,15.33-38.91,30.58-58.5,45.7-15,11.58-31.74,15.45-50.02,9.53-5.16-1.67-10.3-4.31-14.61-7.6-26.18-20.07-52.16-40.42-78.11-60.79-6.03-4.73-11.06-10.43-13.73-17.82-3.55-9.83-2.35-19.16,4.95-26.64,7.04-7.22,14.76-13.84,22.63-20.15,19.53-15.65,39.3-30.99,59.01-46.41,12.6-9.86,22.78-13.6,37.41-13.62Z"/><path class="cls-50" d="M364.68,53.93c10.12-.23,20,2.93,28.61,9.53,20.89,16.03,41.7,32.18,62.45,48.4,7.38,5.77,14.77,11.58,21.63,17.94,15.01,13.92,12.58,31.46.45,43.36-6.86,6.73-14.61,12.6-22.18,18.57-19.43,15.33-38.91,30.58-58.5,45.7-15,11.58-31.74,15.45-50.02,9.53-5.16-1.67-10.3-4.31-14.61-7.6-26.18-20.07-52.16-40.42-78.11-60.79-6.03-4.73-11.06-10.43-13.73-17.82-3.55-9.83-2.35-19.16,4.95-26.64,7.04-7.22,14.76-13.84,22.63-20.15,19.53-15.65,39.3-30.99,59.01-46.41,12.6-9.86,22.78-13.6,37.41-13.62Z"/><path class="cls-71" d="M364.68,53.05c10.12-.23,20,2.93,28.61,9.53,20.89,16.03,41.7,32.18,62.45,48.4,7.38,5.77,14.77,11.58,21.63,17.94,15.01,13.92,12.58,31.46.45,43.36-6.86,6.73-14.61,12.6-22.18,18.57-19.43,15.33-38.91,30.58-58.5,45.7-15,11.58-31.74,15.45-50.02,9.53-5.16-1.67-10.3-4.31-14.61-7.6-26.18-20.07-52.16-40.42-78.11-60.79-6.03-4.73-11.06-10.43-13.73-17.82-3.55-9.83-2.35-19.16,4.95-26.64,7.04-7.22,14.76-13.84,22.63-20.15,19.53-15.65,39.3-30.99,59.01-46.41,12.6-9.86,22.78-13.6,37.41-13.62Z"/><path class="cls-68" d="M364.68,52.17c10.12-.23,20,2.93,28.61,9.53,20.89,16.03,41.7,32.18,62.45,48.4,7.38,5.77,14.77,11.58,21.63,17.94,15.01,13.92,12.58,31.46.45,43.36-6.86,6.73-14.61,12.6-22.18,18.57-19.43,15.33-38.91,30.58-58.5,45.7-15,11.58-31.74,15.45-50.02,9.53-5.16-1.67-10.3-4.31-14.61-7.6-26.18-20.07-52.16-40.42-78.11-60.79-6.03-4.73-11.06-10.43-13.73-17.82-3.55-9.83-2.35-19.16,4.95-26.64,7.04-7.22,14.76-13.84,22.63-20.15,19.53-15.65,39.3-30.99,59.01-46.41,12.6-9.86,22.78-13.6,37.41-13.62Z"/><path class="cls-99" d="M364.68,52.17c10.12-.23,20,2.93,28.61,9.53,20.89,16.03,41.7,32.18,62.45,48.4,7.38,5.77,14.77,11.58,21.63,17.94,15.01,13.92,12.58,31.46.45,43.36-6.86,6.73-14.61,12.6-22.18,18.57-19.43,15.33-38.91,30.58-58.5,45.7-15,11.58-31.74,15.45-50.02,9.53-5.16-1.67-10.3-4.31-14.61-7.6-26.18-20.07-52.16-40.42-78.11-60.79-6.03-4.73-11.06-10.43-13.73-17.82-3.55-9.83-2.35-19.16,4.95-26.64,7.04-7.22,14.76-13.84,22.63-20.15,19.53-15.65,39.3-30.99,59.01-46.41,12.6-9.86,22.78-13.6,37.41-13.62Z"/><path class="cls-97" d="M361.25,79.35c-1.47,0-2.94.79-3.65,2.37l-46.2,103.88c-.7,1.22-.57,2.75.3,3.8.96,1.15,2.63,1.51,4.03.84,15.17-6.96,30.34-13.92,45.51-20.87v-90.01Z"/><path class="cls-95" d="M365.28,169.36v-90.01c1.47,0,2.94.79,3.65,2.37l16.24,36.52-19.89,51.12Z"/><path class="cls-96" d="M385.17,118.24l29.96,67.36c.7,1.22.57,2.75-.3,3.8-.96,1.15-2.63,1.51-4.03.84-15.17-6.96-30.34-13.92-45.51-20.87l19.89-51.12Z"/><path class="cls-94" d="M363.26,203.07c.76,0,1.52-.25,2.15-.76l22.62-18.32h-24.77v19.08Z"/><path class="cls-97" d="M363.26,183.99h-24.77l22.62,18.32c.63.51,1.39.76,2.15.76v-19.08Z"/><path class="cls-98" d="M539.7,125.92h54.82v11.8h-41.19v27.75h37.72v11.5h-37.72v36.75h-13.63v-87.8Z"/><path class="cls-98" d="M605.29,125.92h13.2v87.8h-13.2v-87.8Z"/><path class="cls-98" d="M643.54,210.96c-4.56-2.7-8.1-6.53-10.62-11.5-2.52-4.97-3.77-10.88-3.77-17.74v-.12c0-6.81,1.27-12.7,3.8-17.65,2.53-4.95,6.08-8.76,10.65-11.44,4.56-2.68,9.87-4.02,15.91-4.02s11.41,1.33,15.97,3.99c4.56,2.66,8.11,6.46,10.65,11.41,2.54,4.95,3.8,10.85,3.8,17.71v.12c0,6.9-1.27,12.82-3.8,17.77s-6.08,8.77-10.62,11.47c-4.54,2.7-9.86,4.05-15.94,4.05s-11.47-1.35-16.03-4.05ZM668.51,201.31c2.51-1.74,4.46-4.27,5.84-7.58,1.38-3.31,2.07-7.31,2.07-12.02v-.12c0-4.66-.69-8.65-2.07-11.96-1.38-3.31-3.35-5.82-5.9-7.54-2.56-1.72-5.54-2.59-8.94-2.59s-6.32.87-8.85,2.62c-2.54,1.75-4.51,4.26-5.93,7.54-1.42,3.29-2.13,7.26-2.13,11.93v.12c0,4.71.7,8.71,2.1,12.02,1.4,3.31,3.38,5.83,5.93,7.58,2.56,1.75,5.56,2.62,9,2.62s6.37-.87,8.88-2.62Z"/><path class="cls-98" d="M694.86,149.72h13.2l11.62,50.38h.3l13.26-50.38h12.72l13.39,50.38h.3l11.62-50.38h13.08l-17.52,64.01h-13.75l-13.39-47.95h-.3l-13.33,47.95h-13.69l-17.52-64.01Z"/><path class="cls-98" d="M793.98,125.92h13.63v87.8h-13.63v-87.8ZM806.76,167.91h1.28l35.35-41.98h16.19l-33.89,39.67h-1.7l-17.22,19.84v-17.52ZM815.1,171.99l9.74-9.37,37.66,51.11h-16.92l-30.48-41.74Z"/><path class="cls-98" d="M871.32,137.64c-1.5-1.48-2.25-3.26-2.25-5.32s.75-3.96,2.25-5.42c1.5-1.46,3.31-2.19,5.42-2.19s3.96.73,5.45,2.19c1.48,1.46,2.22,3.27,2.22,5.42s-.74,3.84-2.22,5.32c-1.48,1.48-3.3,2.22-5.45,2.22s-3.92-.74-5.42-2.22ZM870.1,149.72h13.26v64.01h-13.26v-64.01Z"/><path class="cls-98" d="M905.24,210.72c-3.1-2.86-4.65-7.49-4.65-13.9v-36.63h-9.19v-10.47h9.19v-16.67h13.51v16.67h11.99v10.47h-11.99v35.9c0,3.25.71,5.47,2.13,6.66,1.42,1.2,3.53,1.79,6.33,1.79.69,0,1.33-.03,1.92-.09s1.13-.11,1.61-.15v10.16c-.77.12-1.74.24-2.92.37-1.18.12-2.43.18-3.77.18-6.33,0-11.04-1.43-14.15-4.29Z"/><path class="cls-98" d="M539.7,230.06h13.89v3.62h-9.5v5.03h8.96v3.44h-8.96v5.26h9.5v3.62h-13.89v-20.97Z"/><path class="cls-98" d="M556.5,230.06h4.24v20.97h-4.24v-20.97Z"/><path class="cls-98" d="M566.59,250.36c-1.14-.65-2.02-1.59-2.64-2.8-.62-1.21-.93-2.64-.93-4.3h0c0-1.67.31-3.11.93-4.32.62-1.22,1.49-2.15,2.61-2.82,1.12-.66,2.44-1,3.96-1s2.84.32,3.94.97c1.11.64,1.97,1.55,2.57,2.72.61,1.17.91,2.54.91,4.11v1.32h-12.83v-2.69h10.82l-2.02,2.51v-1.64c0-.91-.14-1.67-.42-2.29-.28-.61-.67-1.08-1.17-1.39-.5-.31-1.08-.47-1.74-.47s-1.24.16-1.75.48c-.51.32-.91.79-1.19,1.4-.29.61-.43,1.37-.43,2.26v1.66c0,.85.14,1.58.43,2.19.29.61.69,1.08,1.23,1.4.53.33,1.17.49,1.9.49.58,0,1.08-.09,1.51-.28.43-.18.77-.42,1.05-.7.27-.28.46-.57.55-.86l.03-.09h3.89l-.04.16c-.12.57-.34,1.15-.68,1.73-.34.58-.8,1.11-1.37,1.6-.58.48-1.28.87-2.11,1.16-.83.29-1.8.44-2.91.44-1.59,0-2.95-.33-4.1-.98Z"/><path class="cls-98" d="M583.67,255.84c-1.06-.39-1.9-.92-2.53-1.59-.62-.67-1.01-1.42-1.14-2.25l-.03-.13h4.14l.04.1c.17.38.54.71,1.09,1s1.27.44,2.15.44c1.09,0,1.93-.26,2.5-.78s.86-1.22.86-2.08v-2.4h-.09c-.27.54-.64,1.01-1.11,1.41-.47.4-1.02.71-1.64.92-.62.22-1.31.33-2.06.33-1.3,0-2.42-.31-3.37-.93-.95-.62-1.68-1.51-2.19-2.67s-.76-2.54-.76-4.15h0c0-1.67.26-3.09.78-4.27.52-1.18,1.25-2.09,2.21-2.72.95-.63,2.08-.94,3.39-.94.74,0,1.41.12,2.02.36.61.24,1.15.59,1.61,1.03s.83.97,1.11,1.58h.1v-2.66h4.24v15.14c0,1.15-.31,2.17-.92,3.04-.62.88-1.49,1.56-2.63,2.06s-2.49.74-4.05.74c-1.42,0-2.67-.2-3.73-.59ZM589.14,247.14c.51-.37.91-.89,1.2-1.57s.43-1.48.43-2.41h0c0-.94-.14-1.73-.43-2.4s-.69-1.19-1.21-1.56c-.52-.37-1.12-.55-1.81-.55s-1.31.18-1.83.54-.93.88-1.21,1.55c-.28.67-.42,1.47-.42,2.41h0c0,.94.14,1.75.42,2.43.28.68.68,1.2,1.21,1.57s1.13.55,1.83.55,1.3-.18,1.82-.55Z"/><path class="cls-98" d="M599.67,250.67c-.79-.4-1.4-.96-1.85-1.67-.44-.71-.66-1.52-.66-2.43v-.03c0-.95.24-1.76.71-2.43.47-.67,1.16-1.2,2.07-1.59s2-.62,3.29-.71l6.07-.38v2.64l-5.43.36c-.81.05-1.43.24-1.86.57-.43.33-.64.77-.64,1.32v.03c0,.57.22,1.02.65,1.34.44.33,1.02.49,1.76.49.63,0,1.19-.12,1.69-.37.5-.25.89-.59,1.18-1.02.29-.43.43-.91.43-1.45v-4.74c0-.69-.22-1.23-.65-1.63-.44-.4-1.07-.6-1.9-.6s-1.42.16-1.89.49c-.46.32-.75.74-.86,1.24l-.03.13h-3.89v-.17c.1-.96.42-1.81.98-2.56.56-.75,1.33-1.33,2.32-1.75.99-.42,2.17-.63,3.54-.63s2.51.22,3.5.65c.99.43,1.76,1.04,2.3,1.82s.82,1.7.82,2.75v10.68h-4.24v-2.31h-.09c-.3.52-.68.98-1.13,1.37-.46.39-.98.68-1.56.89s-1.22.31-1.9.31c-1.04,0-1.95-.2-2.74-.6Z"/><path class="cls-98" d="M614.06,235.45h4.24v2.56h.09c.41-.89,1.01-1.59,1.8-2.11.79-.51,1.78-.77,2.95-.77,1.71,0,3.04.52,3.97,1.55.93,1.03,1.4,2.46,1.4,4.29v10.05h-4.24v-9.17c0-1.02-.24-1.81-.72-2.37-.48-.56-1.19-.84-2.14-.84-.63,0-1.18.14-1.64.44s-.83.69-1.08,1.21c-.26.51-.38,1.11-.38,1.79v8.95h-4.24v-15.58Z"/><path class="cls-98" d="M633.56,250.25c-.83-.73-1.25-1.92-1.25-3.59v-8.02h-2.17v-3.2h2.17v-3.81h4.29v3.81h2.85v3.2h-2.85v7.55c0,.73.16,1.23.49,1.52.32.29.81.43,1.45.43.19,0,.36,0,.51-.02.14-.01.28-.03.41-.05v3.11c-.23.04-.52.08-.86.11s-.74.05-1.18.05c-1.72,0-3-.36-3.84-1.09Z"/><path class="cls-98" d="M648.03,230.06h3.84l11.39,16.4-3.68-2.78h1.84v-13.63h4.37v20.97h-3.81l-11.42-16.49,3.68,2.77h-1.84v13.72h-4.37v-20.97Z"/><path class="cls-98" d="M670.5,250.67c-.79-.4-1.4-.96-1.85-1.67-.44-.71-.66-1.52-.66-2.43v-.03c0-.95.24-1.76.71-2.43.47-.67,1.16-1.2,2.07-1.59s2-.62,3.29-.71l6.07-.38v2.64l-5.43.36c-.81.05-1.43.24-1.86.57-.43.33-.64.77-.64,1.32v.03c0,.57.22,1.02.65,1.34.44.33,1.02.49,1.76.49.63,0,1.19-.12,1.69-.37.5-.25.89-.59,1.18-1.02.29-.43.43-.91.43-1.45v-4.74c0-.69-.22-1.23-.65-1.63-.44-.4-1.07-.6-1.9-.6s-1.42.16-1.89.49c-.47.32-.75.74-.86,1.24l-.03.13h-3.89v-.17c.1-.96.42-1.81.98-2.56.56-.75,1.33-1.33,2.32-1.75s2.17-.63,3.54-.63,2.51.22,3.5.65c.99.43,1.76,1.04,2.3,1.82.55.78.82,1.7.82,2.75v10.68h-4.24v-2.31h-.09c-.3.52-.68.98-1.13,1.37-.46.39-.98.68-1.56.89-.59.2-1.22.31-1.9.31-1.04,0-1.95-.2-2.74-.6Z"/><path class="cls-98" d="M683.53,235.45h4.55l3.25,11.83h.09l3.21-11.83h4.43l-5.35,15.58h-4.79l-5.39-15.58Z"/><path class="cls-98" d="M701.13,232.8c-.44-.44-.66-.96-.66-1.56s.22-1.13.66-1.56c.44-.43.98-.65,1.62-.65s1.18.22,1.61.65c.44.43.65.95.65,1.56s-.22,1.12-.65,1.56c-.44.44-.97.66-1.61.66s-1.18-.22-1.62-.66ZM700.61,235.45h4.26v15.58h-4.26v-15.58Z"/><path class="cls-98" d="M711.26,255.84c-1.06-.39-1.9-.92-2.53-1.59-.62-.67-1.01-1.42-1.14-2.25l-.03-.13h4.14l.04.1c.17.38.54.71,1.09,1,.55.29,1.27.44,2.15.44,1.09,0,1.93-.26,2.5-.78s.86-1.22.86-2.08v-2.4h-.09c-.27.54-.64,1.01-1.11,1.41-.47.4-1.02.71-1.64.92s-1.31.33-2.06.33c-1.3,0-2.42-.31-3.37-.93-.95-.62-1.68-1.51-2.19-2.67-.51-1.16-.76-2.54-.76-4.15h0c0-1.67.26-3.09.78-4.27.52-1.18,1.25-2.09,2.21-2.72.95-.63,2.08-.94,3.39-.94.74,0,1.41.12,2.02.36.61.24,1.15.59,1.61,1.03.46.45.83.97,1.11,1.58h.1v-2.66h4.24v15.14c0,1.15-.31,2.17-.92,3.04-.62.88-1.49,1.56-2.63,2.06-1.14.49-2.49.74-4.05.74-1.42,0-2.67-.2-3.73-.59ZM716.73,247.14c.51-.37.91-.89,1.2-1.57.28-.68.43-1.48.43-2.41h0c0-.94-.14-1.73-.43-2.4-.29-.67-.69-1.19-1.21-1.56-.52-.37-1.12-.55-1.81-.55s-1.31.18-1.83.54-.92.88-1.21,1.55c-.28.67-.42,1.47-.42,2.41h0c0,.94.14,1.75.42,2.43s.68,1.2,1.21,1.57,1.13.55,1.83.55,1.3-.18,1.82-.55Z"/><path class="cls-98" d="M727.25,250.67c-.79-.4-1.4-.96-1.85-1.67-.44-.71-.66-1.52-.66-2.43v-.03c0-.95.24-1.76.71-2.43.47-.67,1.16-1.2,2.07-1.59s2-.62,3.29-.71l6.07-.38v2.64l-5.43.36c-.81.05-1.43.24-1.86.57-.43.33-.64.77-.64,1.32v.03c0,.57.22,1.02.65,1.34.44.33,1.02.49,1.76.49.63,0,1.19-.12,1.69-.37.5-.25.89-.59,1.18-1.02.29-.43.43-.91.43-1.45v-4.74c0-.69-.22-1.23-.65-1.63-.44-.4-1.07-.6-1.9-.6s-1.42.16-1.89.49c-.47.32-.75.74-.86,1.24l-.03.13h-3.89v-.17c.1-.96.42-1.81.98-2.56.56-.75,1.33-1.33,2.32-1.75s2.17-.63,3.54-.63,2.51.22,3.5.65c.99.43,1.76,1.04,2.3,1.82.55.78.82,1.7.82,2.75v10.68h-4.24v-2.31h-.09c-.3.52-.68.98-1.13,1.37-.46.39-.98.68-1.56.89-.59.2-1.22.31-1.9.31-1.04,0-1.95-.2-2.74-.6Z"/><path class="cls-98" d="M744,250.25c-.83-.73-1.25-1.92-1.25-3.59v-8.02h-2.17v-3.2h2.17v-3.81h4.29v3.81h2.85v3.2h-2.85v7.55c0,.73.16,1.23.49,1.52.32.29.81.43,1.45.43.19,0,.36,0,.51-.02.14-.01.28-.03.41-.05v3.11c-.23.04-.52.08-.86.11s-.74.05-1.18.05c-1.72,0-3-.36-3.84-1.09Z"/><path class="cls-98" d="M752.81,232.8c-.44-.44-.66-.96-.66-1.56s.22-1.13.66-1.56c.44-.43.98-.65,1.62-.65s1.18.22,1.61.65c.44.43.65.95.65,1.56s-.22,1.12-.65,1.56c-.44.44-.97.66-1.61.66s-1.18-.22-1.62-.66ZM752.29,235.45h4.26v15.58h-4.26v-15.58Z"/><path class="cls-98" d="M762.43,250.38c-1.15-.64-2.05-1.57-2.68-2.79-.63-1.22-.95-2.67-.95-4.35v-.03c0-1.68.32-3.12.97-4.32.64-1.21,1.54-2.13,2.69-2.78,1.15-.65,2.5-.97,4.05-.97s2.92.32,4.08.97c1.16.64,2.06,1.57,2.7,2.78.64,1.21.96,2.65.96,4.34v.03c0,1.7-.32,3.15-.95,4.36-.63,1.21-1.53,2.14-2.68,2.78-1.15.64-2.51.97-4.08.97s-2.95-.32-4.1-.97ZM768.33,247.46c.5-.37.89-.92,1.17-1.63.28-.71.41-1.58.41-2.59v-.03c0-1-.14-1.85-.42-2.56-.28-.71-.68-1.25-1.18-1.63-.51-.37-1.11-.56-1.79-.56s-1.27.19-1.78.57c-.51.38-.9.92-1.18,1.63s-.42,1.56-.42,2.56v.03c0,1.02.14,1.88.41,2.59.28.71.67,1.25,1.18,1.63.51.37,1.12.56,1.82.56s1.28-.19,1.79-.56Z"/><path class="cls-98" d="M776.43,235.45h4.24v2.56h.09c.41-.89,1.01-1.59,1.8-2.11.79-.51,1.78-.77,2.95-.77,1.71,0,3.04.52,3.97,1.55.93,1.03,1.4,2.46,1.4,4.29v10.05h-4.24v-9.17c0-1.02-.24-1.81-.72-2.37-.48-.56-1.19-.84-2.14-.84-.63,0-1.18.14-1.64.44s-.83.69-1.08,1.21c-.26.51-.38,1.11-.38,1.79v8.95h-4.24v-15.58Z"/><path class="cls-98" d="M800.04,232.8c-.44-.44-.66-.96-.66-1.56s.22-1.13.66-1.56c.44-.43.98-.65,1.62-.65s1.18.22,1.61.65c.44.43.65.95.65,1.56s-.22,1.12-.65,1.56c-.44.44-.97.66-1.61.66s-1.18-.22-1.62-.66ZM799.53,235.45h4.26v15.58h-4.26v-15.58Z"/><path class="cls-98" d="M806.62,235.45h4.24v2.56h.09c.41-.89,1.01-1.59,1.8-2.11.79-.51,1.78-.77,2.95-.77,1.71,0,3.04.52,3.97,1.55.93,1.03,1.4,2.46,1.4,4.29v10.05h-4.24v-9.17c0-1.02-.24-1.81-.72-2.37-.48-.56-1.19-.84-2.14-.84-.63,0-1.18.14-1.64.44s-.83.69-1.08,1.21c-.26.51-.38,1.11-.38,1.79v8.95h-4.24v-15.58Z"/><path class="cls-98" d="M833.33,250.65c-1.23-.49-2.21-1.19-2.92-2.11-.71-.92-1.11-2.02-1.18-3.31v-.23s4.13,0,4.13,0l.03.16c.1.54.34,1.01.73,1.4s.9.7,1.53.92c.63.22,1.34.33,2.14.33s1.51-.11,2.1-.33c.59-.22,1.04-.53,1.36-.93.32-.4.48-.87.48-1.4h0c0-.72-.28-1.28-.84-1.68-.56-.4-1.48-.73-2.78-1l-2.21-.45c-2.06-.41-3.62-1.11-4.67-2.1s-1.58-2.28-1.58-3.86h0c0-1.29.36-2.41,1.05-3.36.69-.95,1.63-1.69,2.83-2.22,1.2-.53,2.58-.8,4.13-.8s3.02.25,4.19.76c1.18.51,2.09,1.22,2.75,2.14.66.92,1.02,1.99,1.09,3.22v.26s-4.13,0-4.13,0l-.03-.17c-.07-.55-.27-1.02-.62-1.41s-.79-.69-1.34-.9c-.55-.21-1.19-.32-1.92-.32s-1.39.11-1.93.32c-.54.21-.96.51-1.24.89-.29.38-.43.82-.43,1.32h0c0,.68.28,1.22.84,1.62.56.4,1.44.72,2.64.97l2.22.45c1.46.29,2.66.69,3.6,1.21.94.51,1.63,1.16,2.09,1.94.45.78.68,1.72.68,2.81h0c0,1.36-.34,2.53-1.01,3.51-.67.98-1.64,1.74-2.91,2.28-1.26.54-2.78.81-4.54.81-1.66,0-3.1-.24-4.34-.73Z"/><path class="cls-98" d="M847.32,235.45h4.29l2.35,11.55h.09l2.76-11.55h4.07l2.78,11.55h.09l2.37-11.55h4.18l-4.13,15.58h-4.52l-2.82-11.01h-.09l-2.8,11.01h-4.46l-4.16-15.58Z"/><path class="cls-98" d="M872.53,232.8c-.44-.44-.66-.96-.66-1.56s.22-1.13.66-1.56c.44-.43.98-.65,1.62-.65s1.18.22,1.61.65c.44.43.65.95.65,1.56s-.22,1.12-.65,1.56c-.44.44-.97.66-1.61.66s-1.18-.22-1.62-.66ZM872.01,235.45h4.26v15.58h-4.26v-15.58Z"/><path class="cls-98" d="M880.24,238.64h-2.12v-3.2h2.12v-1.23c0-1.02.17-1.86.52-2.52.34-.66.89-1.16,1.64-1.47.75-.32,1.74-.48,2.97-.48.39,0,.78.02,1.18.05.4.03.72.07.96.12v2.8c-.14-.02-.31-.04-.51-.05-.19-.01-.39-.02-.58-.02-.7,0-1.21.15-1.54.44-.33.3-.49.72-.49,1.27v1.09h3.09v3.2h-2.99v12.38h-4.24v-12.38Z"/><path class="cls-98" d="M892.05,250.25c-.83-.73-1.25-1.92-1.25-3.59v-8.02h-2.17v-3.2h2.17v-3.81h4.29v3.81h2.85v3.2h-2.85v7.55c0,.73.16,1.23.49,1.52.32.29.81.43,1.45.43.19,0,.36,0,.51-.02.14-.01.28-.03.41-.05v3.11c-.23.04-.52.08-.86.11s-.74.05-1.18.05c-1.72,0-3-.36-3.84-1.09Z"/><path class="cls-98" d="M904.76,250.42c-1.32-.64-2.33-1.55-3.05-2.72-.72-1.17-1.08-2.53-1.08-4.08v-13.56h4.39v13.16c0,.9.17,1.68.52,2.35.34.66.84,1.18,1.5,1.55.65.37,1.45.55,2.39.55s1.74-.18,2.39-.55,1.15-.88,1.49-1.55c.34-.66.51-1.45.51-2.35v-13.16h4.39v13.56c0,1.55-.36,2.91-1.07,4.08-.71,1.17-1.72,2.08-3.04,2.72s-2.87.97-4.67.97-3.35-.32-4.66-.97Z"/><path class="cls-98" d="M921.69,230.06h4.39v20.97h-4.39v-20.97Z"/></g></svg>